<svg xmlns="http://www.w3.org/2000/svg" width="85" height="85.018" viewBox="0 0 85 85.018">
  <g id="Layer_1" transform="translate(-238.177 -241.61)">
    <g id="Grupo_1108012" data-name="Grupo 1108012" transform="translate(238.177 241.61)">
      <g id="Grupo_1107999" data-name="Grupo 1107999" transform="translate(1.406 72.023)">
        <path id="Trazado_898177" data-name="Trazado 898177" d="M375.19,3126.009H295.909a1.463,1.463,0,1,1,0-2.925H375.19a1.463,1.463,0,0,1,0,2.926Z" transform="translate(-294.446 -3123.083)" fill-rule="evenodd"/>
      </g>
      <g id="Grupo_1108000" data-name="Grupo 1108000" transform="translate(6.574 46.925)">
        <path id="Trazado_898178" data-name="Trazado 898178" d="M503.611,2140.3a1.455,1.455,0,0,1-1.349-.912,14.668,14.668,0,0,1-1.083-5.567,14.958,14.958,0,0,1,9.594-13.888,14.758,14.758,0,0,1,4.959-.969,1.463,1.463,0,1,1,.076,2.926,11.969,11.969,0,0,0-11.7,11.931,11.64,11.64,0,0,0,.874,4.484,1.462,1.462,0,0,1-.8,1.9A1.988,1.988,0,0,1,503.611,2140.3Z" transform="translate(-501.179 -2118.967)" fill-rule="evenodd"/>
      </g>
      <g id="Grupo_1108001" data-name="Grupo 1108001" transform="translate(62.41 46.907)">
        <path id="Trazado_898179" data-name="Trazado 898179" d="M2748.66,2139.608a1.429,1.429,0,0,1-.551-.114,1.462,1.462,0,0,1-.8-1.9,11.639,11.639,0,0,0,.874-4.484,11.983,11.983,0,0,0-11.7-11.95,1.454,1.454,0,1,1,.076-2.907,14.919,14.919,0,0,1,14.572,14.857,14.673,14.673,0,0,1-1.083,5.567A1.555,1.555,0,0,1,2748.66,2139.608Z" transform="translate(-2735.056 -2118.253)" fill-rule="evenodd"/>
      </g>
      <g id="Grupo_1108002" data-name="Grupo 1108002" transform="translate(28.442 51.895)">
        <path id="Trazado_898180" data-name="Trazado 898180" d="M1378.5,2334.18a1.455,1.455,0,0,1-1.349-.912,14.667,14.667,0,0,1-1.083-5.567,15.048,15.048,0,0,1,.114-1.862,14.818,14.818,0,0,1,2.679-6.8c.171-.228.342-.475.532-.684a1.459,1.459,0,1,1,2.261,1.844,6.035,6.035,0,0,0-.418.551,11.952,11.952,0,0,0-2.166,5.471,12.985,12.985,0,0,0-.095,1.5,11.64,11.64,0,0,0,.874,4.484,1.462,1.462,0,0,1-.8,1.9A2.949,2.949,0,0,1,1378.5,2334.18Z" transform="translate(-1376.065 -2317.814)" fill-rule="evenodd"/>
      </g>
      <g id="Grupo_1108003" data-name="Grupo 1108003" transform="translate(52.377 51.935)">
        <path id="Trazado_898181" data-name="Trazado 898181" d="M2337.129,2335.75a1.429,1.429,0,0,1-.551-.114,1.462,1.462,0,0,1-.8-1.9,11.639,11.639,0,0,0,.874-4.484,12.38,12.38,0,0,0-.095-1.482,11.754,11.754,0,0,0-2.546-5.966,1.471,1.471,0,0,1,.209-2.052,1.439,1.439,0,0,1,2.052.228,14.779,14.779,0,0,1,3.173,7.447,15.042,15.042,0,0,1,.114,1.862,14.668,14.668,0,0,1-1.083,5.567A1.446,1.446,0,0,1,2337.129,2335.75Z" transform="translate(-2333.688 -2319.425)" fill-rule="evenodd"/>
      </g>
      <g id="Grupo_1108004" data-name="Grupo 1108004" transform="translate(30.949 0)">
        <path id="Trazado_898182" data-name="Trazado 898182" d="M1481.195,259.619a1.463,1.463,0,0,1-1.463-1.463,3.7,3.7,0,0,0-1.311-2.793,6.522,6.522,0,0,1,0-9.5,3.662,3.662,0,0,0,1.311-2.793,1.463,1.463,0,1,1,2.925,0,6.551,6.551,0,0,1-2.052,4.749,3.63,3.63,0,0,0,0,5.585,6.515,6.515,0,0,1,2.052,4.749A1.462,1.462,0,0,1,1481.195,259.619Z" transform="translate(-1476.369 -241.61)" fill-rule="evenodd"/>
      </g>
      <g id="Grupo_1108005" data-name="Grupo 1108005" transform="translate(39.365 0)">
        <path id="Trazado_898183" data-name="Trazado 898183" d="M1817.925,259.619a1.463,1.463,0,0,1-1.463-1.463,3.7,3.7,0,0,0-1.311-2.793,6.522,6.522,0,0,1,0-9.5,3.662,3.662,0,0,0,1.311-2.793,1.463,1.463,0,1,1,2.925,0,6.551,6.551,0,0,1-2.052,4.749,3.63,3.63,0,0,0,0,5.585,6.515,6.515,0,0,1,2.052,4.749A1.475,1.475,0,0,1,1817.925,259.619Z" transform="translate(-1813.099 -241.61)" fill-rule="evenodd"/>
      </g>
      <g id="Grupo_1108006" data-name="Grupo 1108006" transform="translate(47.763 0)">
        <path id="Trazado_898184" data-name="Trazado 898184" d="M2153.9,259.619a1.463,1.463,0,0,1-1.463-1.463,3.7,3.7,0,0,0-1.311-2.793,6.522,6.522,0,0,1,0-9.5,3.663,3.663,0,0,0,1.311-2.793,1.463,1.463,0,0,1,2.925,0,6.551,6.551,0,0,1-2.052,4.749,3.63,3.63,0,0,0,0,5.585,6.515,6.515,0,0,1,2.052,4.749A1.463,1.463,0,0,1,2153.9,259.619Z" transform="translate(-2149.078 -241.61)" fill-rule="evenodd"/>
      </g>
      <g id="Grupo_1108007" data-name="Grupo 1108007" transform="translate(0 65.354)">
        <path id="Trazado_898185" data-name="Trazado 898185" d="M304.976,2875.937H256.4a18.231,18.231,0,0,1-18.22-18.2,1.463,1.463,0,0,1,1.463-1.462h82.075a1.463,1.463,0,0,1,1.463,1.463,18.227,18.227,0,0,1-18.2,18.2Zm-63.8-16.757a15.308,15.308,0,0,0,15.218,13.831h48.579a15.308,15.308,0,0,0,15.218-13.831Z" transform="translate(-238.177 -2856.273)" fill-rule="evenodd"/>
      </g>
      <g id="Grupo_1108008" data-name="Grupo 1108008" transform="translate(16.757 25.134)">
        <path id="Trazado_898186" data-name="Trazado 898186" d="M923.441,1276.862a14.857,14.857,0,1,1,0-29.714,14.941,14.941,0,0,1,12.083,6.193,1.458,1.458,0,0,1-2.375,1.691,11.952,11.952,0,0,0-21.659,6.953,11.955,11.955,0,0,0,11.95,11.95h.323a5.938,5.938,0,0,0,.817-.057,11.837,11.837,0,0,0,8.132-4.37,4.47,4.47,0,0,0,.418-.57,1.458,1.458,0,1,1,2.375,1.691c-.171.247-.361.475-.532.7a14.739,14.739,0,0,1-10.126,5.434,9.007,9.007,0,0,1-1.007.057A1.437,1.437,0,0,1,923.441,1276.862Z" transform="translate(-908.584 -1247.148)" fill-rule="evenodd"/>
      </g>
      <g id="Grupo_1108009" data-name="Grupo 1108009" transform="translate(38.529 25.134)">
        <path id="Trazado_898187" data-name="Trazado 898187" d="M1794.511,1276.862A14.857,14.857,0,1,1,1809.368,1262,14.878,14.878,0,0,1,1794.511,1276.862Zm0-26.788a11.931,11.931,0,1,0,11.95,11.931A11.956,11.956,0,0,0,1794.511,1250.074Z" transform="translate(-1779.654 -1247.148)" fill-rule="evenodd"/>
      </g>
      <g id="Grupo_1108010" data-name="Grupo 1108010" transform="translate(44.837 31.441)">
        <path id="Trazado_898188" data-name="Trazado 898188" d="M2033.489,1509.527a1.463,1.463,0,0,1-1.463-1.463,8.563,8.563,0,0,1,8.55-8.55,1.463,1.463,0,1,1,0,2.925,5.636,5.636,0,0,0-5.624,5.624A1.452,1.452,0,0,1,2033.489,1509.527Z" transform="translate(-2032.026 -1499.515)" fill-rule="evenodd"/>
      </g>
      <g id="Grupo_1108011" data-name="Grupo 1108011" transform="translate(22.685 31.441)">
        <path id="Trazado_898189" data-name="Trazado 898189" d="M1147.208,1509.527a1.463,1.463,0,0,1-1.463-1.463,8.563,8.563,0,0,1,8.55-8.55,1.463,1.463,0,1,1,0,2.925,5.636,5.636,0,0,0-5.624,5.624A1.452,1.452,0,0,1,1147.208,1509.527Z" transform="translate(-1145.746 -1499.515)" fill-rule="evenodd"/>
      </g>
    </g>
    <g id="Grupo_1108013" data-name="Grupo 1108013" transform="translate(241.179 269.65)">
      <path id="Trazado_898190" data-name="Trazado 898190" d="M1030.819,1375.381a1.463,1.463,0,1,1-2.926,0,8.563,8.563,0,0,1,8.55-8.55,1.463,1.463,0,1,1,0,2.925A5.636,5.636,0,0,0,1030.819,1375.381Zm-3.325,7.447a11.889,11.889,0,0,0,9.328,4.484h.323a5.938,5.938,0,0,0,.817-.057,11.829,11.829,0,0,0,7.948-4.149,14.823,14.823,0,0,1,.013-15.472,11.951,11.951,0,0,0-21.051,7.728A11.844,11.844,0,0,0,1027.494,1382.829Z" transform="translate(-1008.211 -1363.431)" fill="#c76537" fill-rule="evenodd"/>
      <path id="Trazado_898191" data-name="Trazado 898191" d="M638.93,2242.344a14.749,14.749,0,0,1-9.662-4.895,11.686,11.686,0,0,0-3.323.744,11.992,11.992,0,0,0-7.714,11.152,11.764,11.764,0,0,0,.542,3.572h18.833a14.836,14.836,0,0,1-.432-3.572,15.051,15.051,0,0,1,.114-1.862A14.7,14.7,0,0,1,638.93,2242.344Z" transform="translate(-611.734 -2215.603)" fill="#c76537" fill-rule="evenodd"/>
      <path id="Trazado_898192" data-name="Trazado 898192" d="M1494.613,2249.8a11.953,11.953,0,0,0-2.166,5.471,12.99,12.99,0,0,0-.095,1.5,11.768,11.768,0,0,0,.535,3.553H1515.8a11.761,11.761,0,0,0,.547-3.59,12.4,12.4,0,0,0-.095-1.482,11.73,11.73,0,0,0-2.141-5.437,14.823,14.823,0,0,1-10.618-4.769,14.7,14.7,0,0,1-8.768,4.593Z" transform="translate(-1464.006 -2223.013)" fill="#c76537" fill-rule="evenodd"/>
      <path id="Trazado_898193" data-name="Trazado 898193" d="M1898.239,1383.159a11.931,11.931,0,1,0,.008-14.075,1.447,1.447,0,0,1-.1.144,11.891,11.891,0,0,0-.057,13.716A1.425,1.425,0,0,1,1898.239,1383.159Zm2.562-5.569a1.463,1.463,0,0,1-1.463-1.463,8.563,8.563,0,0,1,8.55-8.55,1.463,1.463,0,1,1,0,2.925,5.635,5.635,0,0,0-5.624,5.624A1.452,1.452,0,0,1,1900.8,1377.59Z" transform="translate(-1857.503 -1364.177)" fill="#c76537" fill-rule="evenodd"/>
      <path id="Trazado_898194" data-name="Trazado 898194" d="M2501.036,2236.01a14.848,14.848,0,0,1-8.138,4.7,14.7,14.7,0,0,1,1.779,5.39,15.037,15.037,0,0,1,.114,1.862,14.836,14.836,0,0,1-.427,3.552h17.169a11.764,11.764,0,0,0,.547-3.59,11.975,11.975,0,0,0-11.043-11.914Z" transform="translate(-2439.543 -2214.2)" fill="#c76537" fill-rule="evenodd"/>
      <path id="Trazado_898195" data-name="Trazado 898195" d="M431.295,2972.59H358.283a15.2,15.2,0,0,0,.85,3.762h77.315a15.212,15.212,0,0,0,.85-3.762Z" transform="translate(-358.283 -2932.369)" fill="#b6bbbd" fill-rule="evenodd"/>
      <path id="Trazado_898196" data-name="Trazado 898196" d="M524.212,3240.14H449.77a15.281,15.281,0,0,0,12.931,7.143H511.28a15.281,15.281,0,0,0,12.931-7.143Z" transform="translate(-447.483 -3193.231)" fill="#b6bbbd" fill-rule="evenodd"/>
      <path id="Trazado_898197" data-name="Trazado 898197" d="M2322.094,1364.273a11.93,11.93,0,0,1,0,23.722,11.931,11.931,0,1,0,0-23.722Z" transform="translate(-2273.009 -1364.184)" fill="#a1522d" fill-rule="evenodd"/>
      <path id="Trazado_898198" data-name="Trazado 898198" d="M2815.566,2247.923a11.975,11.975,0,0,0-11.043-11.914q-.176.2-.358.389a11.819,11.819,0,0,1,2.458.98,11.951,11.951,0,0,1,6.346,10.544,11.762,11.762,0,0,1-.547,3.59h2.6A11.762,11.762,0,0,0,2815.566,2247.923Z" transform="translate(-2743.03 -2214.199)" fill="#a1522d" fill-rule="evenodd"/>
      <path id="Trazado_898199" data-name="Trazado 898199" d="M3385.051,2972.59h-2.6a15.214,15.214,0,0,1-.85,3.762h2.6A15.2,15.2,0,0,0,3385.051,2972.59Z" transform="translate(-3306.036 -2932.369)" fill="#949799" fill-rule="evenodd"/>
      <path id="Trazado_898200" data-name="Trazado 898200" d="M2822.291,3240.14h-2.6a15.281,15.281,0,0,1-12.931,7.143h2.6A15.281,15.281,0,0,0,2822.291,3240.14Z" transform="translate(-2745.562 -3193.231)" fill="#949799" fill-rule="evenodd"/>
    </g>
  </g>
</svg>
