<svg xmlns="http://www.w3.org/2000/svg" width="120" height="120" viewBox="0 0 120 120">
  <g id="Grupo_1107986" data-name="Grupo 1107986" transform="translate(-836.051 -1271)">
    <circle id="Elipse_11500" data-name="Elipse 11500" cx="60" cy="60" r="60" transform="translate(836.051 1271)" fill="#fff"/>
    <g id="Grupo_1107983" data-name="Grupo 1107983" transform="translate(860.051 1291.858)">
      <path id="Trazado_898152" data-name="Trazado 898152" d="M68.055,115.516,20.4,102.746a6.741,6.741,0,0,0-8.256,4.767A63.632,63.632,0,0,0,18.471,155.6a6.741,6.741,0,0,0,9.208,2.467l49-28.289A6.749,6.749,0,0,0,75.092,117.4Z" transform="translate(-8.573 -85.219)" fill="#ffdcd5" fill-rule="evenodd"/>
      <path id="Trazado_898153" data-name="Trazado 898153" d="M82.692,26.1l47.659,12.77.19-.708a4.522,4.522,0,0,0-4.415-7.647,4.522,4.522,0,0,0-7.648-4.415,4.522,4.522,0,0,0-5.83-5A4.522,4.522,0,0,0,105,16.688a4.522,4.522,0,0,0-8.83,0A4.522,4.522,0,0,0,88.522,21.1a4.522,4.522,0,0,0-5.831,5Z" transform="translate(-70.868 -8.577)" fill="#ff9c9b" fill-rule="evenodd"/>
      <path id="Trazado_898154" data-name="Trazado 898154" d="M53.266,236.611,18.394,256.745a5.316,5.316,0,0,1-7.262-1.946,61.67,61.67,0,0,1-7.75-22.907,62.438,62.438,0,0,1-.45-11.369,1.424,1.424,0,0,0-2.845-.148,65.3,65.3,0,0,0,.471,11.889,64.5,64.5,0,0,0,8.107,23.959,8.111,8.111,0,0,0,4.958,3.8,8.207,8.207,0,0,0,2.127.282,8.117,8.117,0,0,0,4.069-1.1L54.69,239.078a1.424,1.424,0,0,0-1.424-2.467Z" transform="translate(0 -185.134)"/>
      <path id="Trazado_898155" data-name="Trazado 898155" d="M85.758,37.635a8.012,8.012,0,0,0-5.969-6.828l-5.23-1.4a5.939,5.939,0,0,0-4.777-9.088,5.933,5.933,0,0,0-8.074-5.279A5.933,5.933,0,0,0,56.3,10.9a5.937,5.937,0,0,0-8.677-5.01,5.937,5.937,0,0,0-10.019,0,5.937,5.937,0,0,0-8.677,5.01,5.931,5.931,0,0,0-5.6,4.979,8.178,8.178,0,0,0-8.235,6.043,1.424,1.424,0,0,0,2.752.737,5.323,5.323,0,0,1,6.512-3.76l.021.006h0l54.673,14.65a5.325,5.325,0,0,1,1.242,9.763L77.27,45.068a1.424,1.424,0,1,0,1.424,2.467l3.016-1.741a8.045,8.045,0,0,0,4.048-8.158ZM30.125,13.884A1.424,1.424,0,0,0,31.913,12.1a3.1,3.1,0,0,1,5.238-3.024,1.424,1.424,0,0,0,2.443-.654,3.1,3.1,0,0,1,6.048,0,1.424,1.424,0,0,0,2.443.654A3.1,3.1,0,0,1,53.323,12.1a1.424,1.424,0,0,0,1.788,1.788,3.114,3.114,0,0,1,3.614,1.406,3.062,3.062,0,0,1,.379,2.019,1.424,1.424,0,0,0,2.459,1.178A3.1,3.1,0,0,1,66.8,21.512,1.424,1.424,0,0,0,68.589,23.3a3.1,3.1,0,0,1,3.024,5.238c-.021.019-.039.042-.059.062L26.125,16.428a3.075,3.075,0,0,1,.387-1.138,3.113,3.113,0,0,1,3.614-1.406Z" transform="translate(-12.902)"/>
      <path id="Trazado_898156" data-name="Trazado 898156" d="M201.626,77.5a1.424,1.424,0,1,0,0-2.849h0a1.424,1.424,0,1,0,0,2.849Z" transform="translate(-171.686 -61.323)"/>
      <path id="Trazado_898157" data-name="Trazado 898157" d="M276.626,107.5a1.424,1.424,0,1,0,0-2.849h0a1.424,1.424,0,1,0,0,2.849Z" transform="translate(-236.003 -87.05)"/>
      <path id="Trazado_898158" data-name="Trazado 898158" d="M206.05,218.574a1.424,1.424,0,0,0-1.424-1.424h0a1.424,1.424,0,1,0,1.425,1.424Z" transform="translate(-174.259 -183.526)"/>
      <path id="Trazado_898159" data-name="Trazado 898159" d="M92.05,292.074a1.424,1.424,0,0,0-1.424-1.424h0a1.424,1.424,0,1,0,1.425,1.424Z" transform="translate(-76.496 -246.557)"/>
      <path id="Trazado_898160" data-name="Trazado 898160" d="M275.043,307.074a1.424,1.424,0,0,0-1.424-1.424h0a1.424,1.424,0,1,0,1.425,1.424Z" transform="translate(-233.425 -259.421)"/>
      <path id="Trazado_898161" data-name="Trazado 898161" d="M146.043,367.074a1.424,1.424,0,0,0-1.424-1.424h0a1.424,1.424,0,1,0,1.425,1.424Z" transform="translate(-122.799 -310.874)"/>
      <path id="Trazado_898162" data-name="Trazado 898162" d="M117.543,167.574a1.424,1.424,0,0,0-1.424-1.424h0a1.424,1.424,0,1,0,1.425,1.424Z" transform="translate(-98.358 -139.79)"/>
      <path id="Trazado_898163" data-name="Trazado 898163" d="M408.729,318.8A1.424,1.424,0,1,0,410,321.353h0a1.424,1.424,0,0,0-1.275-2.548Z" transform="translate(-349.837 -270.572)"/>
      <path id="Trazado_898164" data-name="Trazado 898164" d="M336.213,228.8a1.424,1.424,0,0,0-1.424-1.424h0a1.424,1.424,0,1,0,1.425,1.424Z" transform="translate(-285.882 -192.293)"/>
      <path id="Trazado_898165" data-name="Trazado 898165" d="M6.456,177.073a1.423,1.423,0,0,0,1.6-1.224h0a1.424,1.424,0,1,0-1.6,1.225Z" transform="translate(-4.476 -146.725)"/>
    </g>
  </g>
</svg>
