<svg id="Grupo_1107996" data-name="Grupo 1107996" xmlns="http://www.w3.org/2000/svg" width="85" height="85" viewBox="0 0 85 85">
  <g id="Grupo_1107994" data-name="Grupo 1107994" transform="translate(1.66 1.66)">
    <path id="Trazado_898167" data-name="Trazado 898167" d="M50.84,10A40.84,40.84,0,1,0,91.68,50.84,40.84,40.84,0,0,0,50.84,10Z" transform="translate(-10 -10)" fill="#faf7f5"/>
    <g id="Grupo_1107993" data-name="Grupo 1107993" transform="translate(13.683 12.543)">
      <g id="Grupo_1107991" data-name="Grupo 1107991" transform="translate(22.353)">
        <path id="Trazado_898168" data-name="Trazado 898168" d="M227.066,199.892a9.708,9.708,0,0,0,18.613-4.6,9.708,9.708,0,0,0,11.737-15.013q-.077-.088-.156-.174a9.685,9.685,0,0,0-7.706-17.7" transform="translate(-227.066 -149.224)" fill="#b8ecbc"/>
        <path id="Trazado_898169" data-name="Trazado 898169" d="M256.481,131.774a9.72,9.72,0,0,0,5.763-11.887,9.708,9.708,0,0,0,8.306-17.151q-.094-.07-.189-.137a9.683,9.683,0,1,0-14.752-12.1" transform="translate(-250.87 -85.551)" fill="#a0e5a5"/>
      </g>
      <g id="Grupo_1107992" data-name="Grupo 1107992" transform="translate(0 3.633)">
        <path id="Trazado_898170" data-name="Trazado 898170" d="M125.348,268.629h18.2a4.155,4.155,0,0,0,4.155-4.155V245.048" transform="translate(-119.881 -222.202)" fill="#ffc8b8"/>
        <path id="Trazado_898171" data-name="Trazado 898171" d="M92.42,176.609V188.1a4.155,4.155,0,0,0,4.155,4.155h1.312c3.01-1.832,5.307-.7,8.69-4.079,4.084-4.084,1.583-6.586,5.667-10.67,3.118-3.118,5.314-2.4,8-3.7V153.466" transform="translate(-92.42 -145.824)" fill="#ff7d97"/>
        <path id="Trazado_898172" data-name="Trazado 898172" d="M92.42,121.77V145.55c.247-.21.5-.442.76-.7,4.084-4.084,1.583-6.586,5.667-10.671s6.585-1.582,10.669-5.666,1.583-6.586,5.667-10.67a9.432,9.432,0,0,1,5.057-2.766v-3.487a4.155,4.155,0,0,0-4.155-4.155h-9.069" transform="translate(-92.42 -107.434)" fill="#ffc8b8"/>
        <path id="Trazado_898173" data-name="Trazado 898173" d="M107.016,107.436H96.575a4.155,4.155,0,0,0-4.155,4.155v10.18c3.874-3.593,6.346-1.356,10.309-5.319C106.233,112.948,104.889,110.609,107.016,107.436Z" transform="translate(-92.42 -107.436)" fill="#ff5d7d"/>
      </g>
    </g>
  </g>
  <g id="Grupo_1107995" data-name="Grupo 1107995" transform="translate(0)">
    <path id="Trazado_898174" data-name="Trazado 898174" d="M82.954,48.379a1.661,1.661,0,0,0-1.936,1.329,39.18,39.18,0,1,1,0-14.415,1.66,1.66,0,1,0,3.264-.607,42.5,42.5,0,1,0,0,15.628,1.66,1.66,0,0,0-1.329-1.936Z" transform="translate(0)"/>
    <path id="Trazado_898175" data-name="Trazado 898175" d="M143.347,100.364A11.339,11.339,0,0,0,130.892,88.3a11.406,11.406,0,0,0-.036-3.017,11.253,11.253,0,0,0-4.441-7.464,11.375,11.375,0,0,0-15.767,2.164,5.779,5.779,0,0,0-2.9-.777H88.235a5.822,5.822,0,0,0-5.815,5.815v38.117a5.822,5.822,0,0,0,5.815,5.815h16.85a11.367,11.367,0,0,0,21.547-3.286,11.371,11.371,0,0,0,12.4-17.153q.228-.179.447-.37A11.3,11.3,0,0,0,143.347,100.364ZM124.43,80.484a8.027,8.027,0,0,1,1.622,11.241,8.114,8.114,0,0,1-1.21,1.3,1.66,1.66,0,0,0,.122,2.613c.052.037.1.075.157.114a8.048,8.048,0,0,1-6.889,14.215,1.66,1.66,0,0,0-2.012,2.09,8.065,8.065,0,0,1-2.659,8.629V85.024a5.78,5.78,0,0,0-.6-2.573q.108-.16.224-.315A8.051,8.051,0,0,1,124.43,80.484Zm-16.685,45.151H97.987a13.371,13.371,0,0,0,1.424-1.245,11.235,11.235,0,0,0,3.274-6.121,8.665,8.665,0,0,1,6.942-6.942c.2-.048.4-.1.614-.15v11.963a2.5,2.5,0,0,1-2.495,2.495Zm2.495-40.612v2.22a10.714,10.714,0,0,0-4.571,2.859,11.235,11.235,0,0,0-3.274,6.121,8.665,8.665,0,0,1-6.942,6.942,11.966,11.966,0,0,0-9.395,9.395c-.1.426-.2.828-.319,1.222V95.961a8.142,8.142,0,0,1,3.7-1.628,11.966,11.966,0,0,0,9.394-9.394,10.572,10.572,0,0,1,.788-2.41h8.121a2.5,2.5,0,0,1,2.5,2.495Zm-24.5,0a2.5,2.5,0,0,1,2.495-2.495h7.814c-.186.573-.317,1.118-.441,1.634A8.665,8.665,0,0,1,88.666,91.1a14.1,14.1,0,0,0-2.926.951Zm0,38.117v-3.417q.137-.13.273-.266a11.238,11.238,0,0,0,3.274-6.121,8.666,8.666,0,0,1,6.942-6.942A11.966,11.966,0,0,0,105.624,97a8,8,0,0,1,2.393-4.549A8.1,8.1,0,0,1,110.24,90.8v16.923c-.455.148-.914.259-1.39.373a11.965,11.965,0,0,0-9.394,9.394,8.665,8.665,0,0,1-6.942,6.942,13.033,13.033,0,0,0-3.411,1.2h-.869A2.5,2.5,0,0,1,85.74,123.141Zm51.553-17.5a8.129,8.129,0,0,1-1.457,1.014,1.66,1.66,0,0,0-.432,2.58c.044.048.087.1.13.145a8.048,8.048,0,0,1-9.733,12.442,1.66,1.66,0,0,0-2.408,1.618,8.051,8.051,0,0,1-14.075,5.983q-.243-.279-.459-.576a5.835,5.835,0,0,0,4.488-4.144,11.379,11.379,0,0,0,6.509-11.156,11.371,11.371,0,0,0,8.5-19.382q.185-.223.358-.456a11.514,11.514,0,0,0,1.121-1.837,8.022,8.022,0,0,1,7.458,13.77Z" transform="translate(-68.737 -63.033)"/>
    <path id="Trazado_898176" data-name="Trazado 898176" d="M495.311,247.34a1.66,1.66,0,1,0-1.044,1.878A1.675,1.675,0,0,0,495.311,247.34Z" transform="translate(-410.342 -205.165)"/>
  </g>
</svg>
