<svg xmlns="http://www.w3.org/2000/svg" width="100" height="100" viewBox="0 0 100 100">
  <g id="Grupo_1107953" data-name="Grupo 1107953" transform="translate(-200 -543)">
    <rect id="Rectángulo_401577" data-name="Rectángulo 401577" width="100" height="100" transform="translate(200 543)" fill="#c6e697"/>
    <g id="Grupo_1107952" data-name="Grupo 1107952" transform="translate(208.525 526.506)">
      <path id="Trazado_897381" data-name="Trazado 897381" d="M79.143,37.006a6.75,6.75,0,0,0-4.921,1.834L67.053,45.6a2.518,2.518,0,0,0-.964,1.506,7.053,7.053,0,0,0,.384,1.632c.25,1.5-1.411,2.759-2.92,2.655a4.7,4.7,0,0,1-2.278-.853,1.606,1.606,0,0,1-.326-2.407,6.518,6.518,0,0,0,1.047-1.568,1.619,1.619,0,0,0-.96-2.221l-3.793-1.26c-1.835-.61-3.777-1.227-5.67-.83-2.753.578-4.618,3.111-6,5.564s-2.689,5.157-5.1,6.605c-.765.459-1.616.772-2.344,1.288-.681.483-3.419,3.844-2.906,5.061a2.211,2.211,0,0,0,1.892,1.3c1.718.131,3-.973,4.19-2.028-.36,2.8-.524,7.881,1.295,8.082s4.364-5.13,4.426-6.784-1.353-1.55-1.267-2.569a12.49,12.49,0,0,1,.879-2.927c.671-1.955.886-4.2,2.814-5.4a2.336,2.336,0,0,1,2.8.184,2.224,2.224,0,0,1,.3,2.731c-.521,1.138-1.422,2.072-1.913,3.223s-.4,2.74.686,3.356c1.16.658,2.555-.173,3.716-.828s2.921-1,3.584.156a12.638,12.638,0,0,1-1.93,5.336c-1.157,1.517-3.307,2.457-5.022,1.624-.846.136-1.306,1.094-1.365,1.951a16.054,16.054,0,0,1-.064,2.568c-.558,2.377-3.615,2.959-6.05,3.058l-4.839.2a1.327,1.327,0,0,1-.935-.2,1.279,1.279,0,0,1-.316-.969c-.034-1.295.632-2.826-.227-3.872-.7-.664-2.765-.492-3.119.407s.3,2.636-.362,3.526S32,74.159,30.91,76.127a5.765,5.765,0,0,1-1,1.564,4.048,4.048,0,0,1-1.551.75c-2.638.835-6.728-1.055-8.069.4-1.119,1.383-.5,3.415.082,5.1s.937,3.865-.454,4.972c-1.257,1-3.089.425-4.572-.191l-3.687-1.531a1.718,1.718,0,0,0-2.316,1.137L7.93,93.484a6.938,6.938,0,0,0-.352,3.207c.394,1.889,2.277,3.1,4.127,3.63,1.275.367,2.61.519,3.9.818a1.805,1.805,0,0,0,2.148-1.251,9.862,9.862,0,0,1,.931-2.286,4.755,4.755,0,0,1,3.346-2.458c.7-.086,1.551-.014,1.975-.584.334-.449.226-1.1.493-1.591.488-.9,1.781-.755,2.794-.638a10.079,10.079,0,0,0,5.056-.739,1.789,1.789,0,0,1,2.151.586c1.217,1.691,1.961,4.741,3.054,6.548,1.072,1.771,1.837,2.077,1.825,4.7-1.194.75-2.183,1.967-3.586,1.843-.335.5,1.561,2.25,2.1,2.513a2.663,2.663,0,0,0,1.764.045,4.84,4.84,0,0,0,3.067-2.74c.241-.423,1.46-.784,1.46-.784a.472.472,0,0,0,.668-.09,1.534,1.534,0,0,0,.041-1.543,4.523,4.523,0,0,0-1.558-1.424c-2-1.369-2.247-5.258-3.624-7.254a4.684,4.684,0,0,1-.718-1.611A1.1,1.1,0,0,1,40.621,91.2l6.587,3.866a2.814,2.814,0,0,1,1,.822c.615.955-.084,2.259.246,3.347.255.839,1.053,1.365,1.7,1.951s.259,1.844.855,2.3a1.619,1.619,0,0,0,1.249-.024,2.462,2.462,0,0,1,.961-.207c.789-.009,1.622-.3,1.458-1.043a1.043,1.043,0,0,0-.2-.411l-1.3-2.634c-.211-.785.62-.915,1.085-.935s1.6,0,2.207,0,3.567-2.683,3.778-3.869l.756-4.249a3.27,3.27,0,0,1,.718-1.8c.465-.465,1,.36,1.7.043.908-.411.358-1.533,1.628-1.562a1.449,1.449,0,0,1,1.22.631.527.527,0,0,0,.5.283.613.613,0,0,0,.316-.127c.947-.717,1.65-1.7,2.536-2.488.837-.744,2.55-1.7,3.04-1.127s1.248,2.946-2.6,5.121c-.824.467-.844,1.149-.412,2.044a1.165,1.165,0,0,0,1.045.629c1.02.015,2.488-1.424,4.211-.015.128.105,1.014,2.567-.843,3.092-2.538.717-3.586.614-6.61,1.007a6.109,6.109,0,0,0-3.848,1.45c-.676.732-.986,1.79-1.8,2.368-.439.312-.989.454-1.395.809a2.306,2.306,0,0,0-.539,2.332,6.776,6.776,0,0,0,1.243,2.178,3.406,3.406,0,0,0,1.131,1.1,2.6,2.6,0,0,0,1.26.207c2.539-.105,5-1.924,7.432-1.189a5.677,5.677,0,0,0,1.544.427,3.563,3.563,0,0,0,1.954-.886,18.9,18.9,0,0,1,8.178-3.234c.632-.09,1.367-.209,1.675-.77a1.977,1.977,0,0,0,.175-.862c.078-1.535.051-3.317-1.146-4.278a7.919,7.919,0,0,0-1.7-.852c-1.741-.809-2.117-3.572-1.5-4.615s7.87,3.2,7.87,3.2l0-56.224s-7.822.051-8.87.006Z" transform="translate(-6.282 -6.285)" fill="#40c4ff"/>
      <g id="Grupo_1107950" data-name="Grupo 1107950" transform="translate(62.851 30.715)">
        <path id="Trazado_897382" data-name="Trazado 897382" d="M446.121,37.02c-.259,0-.456-.007-.571-.012a6.74,6.74,0,0,0-.812.016Z" transform="translate(-435.54 -37.003)" fill="#00b0ff"/>
        <path id="Trazado_897383" data-name="Trazado 897383" d="M402.163,376.185a7.922,7.922,0,0,0-1.7-.852,3.636,3.636,0,0,1-1.773-3.2c-2.007-1.013-1.615,2.653-1.583,2.848a4.871,4.871,0,0,0,.964,2.214c1.2.961.454,1.73.376,3.265a1.978,1.978,0,0,1-.175.862c-.308.561-1.042.68-1.675.77a18.9,18.9,0,0,0-8.178,3.234c-.151.106-.3.215-.459.319a4.5,4.5,0,0,1,1.821.14,5.675,5.675,0,0,0,1.544.427,3.563,3.563,0,0,0,1.954-.886,18.9,18.9,0,0,1,8.178-3.234c.632-.09,1.367-.209,1.675-.77a1.976,1.976,0,0,0,.175-.862C403.387,378.928,403.36,377.146,402.163,376.185Z" transform="translate(-387.962 -317.696)" fill="#00b0ff"/>
        <path id="Trazado_897384" data-name="Trazado 897384" d="M474.489,37.022l0,53.664c2.228,1,4.86,2.539,4.86,2.539l0-56.225S476.851,37.016,474.489,37.022Z" transform="translate(-460.47 -37)" fill="#00b0ff"/>
      </g>
      <g id="Grupo_1107951" data-name="Grupo 1107951" transform="translate(0.003 29.5)">
        <path id="Trazado_897385" data-name="Trazado 897385" d="M456.049,105.548h0a1.215,1.215,0,0,0-1.215,1.215l0,41.832a34.291,34.291,0,0,0-4.785-2.225c-.6-.2-2.2-.722-2.914.473a4.72,4.72,0,0,0-.191,3.6c.884,2.863,2.829,2.762,3.669,3.437.725.582.762,1.915.693,3.269,0,.086-.012.234-.026.316a3.413,3.413,0,0,1-.781.174c-.628.089-1.259.21-1.878.359a1.215,1.215,0,0,0,.571,2.362c.543-.131,1.1-.237,1.648-.315,1.839-.26,2.8-.919,2.893-2.773.063-1.249.194-3.847-1.6-5.286-1.362-1.093-2.356-.6-2.869-2.259a3.307,3.307,0,0,1-.149-1.111,39.439,39.439,0,0,1,6.318,3.1,1.216,1.216,0,0,0,1.829-1.048l0-43.9A1.215,1.215,0,0,0,456.049,105.548Z" transform="translate(-374.321 -93.228)"/>
        <path id="Trazado_897386" data-name="Trazado 897386" d="M69.166,309.772c-1.793,1.007-2.427,1.732-2.936,1.732h0c-.929-.008-1.537-1.391-6.3.13-.533.17-2.707.895-3.41.549a6.878,6.878,0,0,1-1.739-2.51,1.159,1.159,0,0,1,.168-1.094c.591-.517,1.38-.226,2.717-2.439a5.3,5.3,0,0,1,.568-.827,5.182,5.182,0,0,1,3.111-1.069c.913-.118,1.648-.191,2.3-.256a22.217,22.217,0,0,0,4.487-.786,2.679,2.679,0,0,0,1.978-2.112,3.778,3.778,0,0,0-.7-3.09,4,4,0,0,0-4.35-.454,3.89,3.89,0,0,1-.608.194,1.566,1.566,0,0,1-.125-.358c.388-.274,3.173-1.658,3.628-4.232.248-1.405-.3-3.265-1.871-3.374-1.273-.087-2.871,1.011-3.539,1.6-.763.678-1.36,1.438-2,2.039a2.638,2.638,0,0,0-1.788-.644,2.115,2.115,0,0,0-2.11,1.554l0,.009a1.8,1.8,0,0,0-2.05.311c-.931.929-.943,1.816-1.81,6.689A9.937,9.937,0,0,1,50,304.214c-.627,0-1.613-.014-2.067.006-1.995.087-2.663,1.589-2.122,2.686l1.15,2.336h-.032a3.665,3.665,0,0,0-1.386.288l-.01-.075c-.336-2.579-1.828-2.153-2.2-3.368a3.085,3.085,0,0,1,.009-1.036,3.811,3.811,0,0,0-.4-2.615,3.9,3.9,0,0,0-1.409-1.212l-6.587-3.866a2.312,2.312,0,0,0-3.43,2.481,5.867,5.867,0,0,0,.906,2.047,11.793,11.793,0,0,1,1.155,2.753c1.744,5.234,3.168,4.666,3.9,5.723-3.07.938-2.02,2.929-4.39,3.484a1.714,1.714,0,0,1-.941.053,5.044,5.044,0,0,1-.755-.629,24.84,24.84,0,0,0,2.341-1.613,1.215,1.215,0,0,0,.569-1.023,6.287,6.287,0,0,0-1.358-4.366c-1.9-2.714-2.178-5.414-3.75-7.6a3.023,3.023,0,0,0-3.611-.994,8.829,8.829,0,0,1-4.443.65c-1.166-.134-3.118-.358-4,1.265a4.923,4.923,0,0,0-.4,1.421,6.089,6.089,0,0,0-5.4,3.179,10.92,10.92,0,0,0-1.051,2.565c-.2.689-.88.342-2.355.073-.767-.14-1.492-.273-2.189-.473-1.393-.4-2.984-1.323-3.274-2.711a6.087,6.087,0,0,1,.335-2.638l1.411-5.162a.5.5,0,0,1,.678-.335L8.6,297.04c1.144.475,3.823,1.588,5.794.019,1.083-.862,2.109-2.658.846-6.319-.517-1.5-.965-3.032-.318-3.9.219-.187.971-.206,2.235-.058a1.215,1.215,0,0,0,.283-2.414c-1.619-.19-3.286-.281-4.323.842q-.027.029-.052.06c-1.6,1.975-.675,4.656-.122,6.258.291.844.868,2.886-.062,3.626-.753.6-2.185.121-3.349-.362l-3.687-1.531A2.934,2.934,0,0,0,1.887,295.2L.477,300.366a8.011,8.011,0,0,0-.37,3.776c.434,2.076,2.3,3.777,4.981,4.549,1.351.388,2.705.543,3.961.834a3.018,3.018,0,0,0,3.591-2.1,8.58,8.58,0,0,1,.812-2.007c1.755-3,3.867-1.077,5.247-2.93a4.382,4.382,0,0,0,.583-1.735,3.917,3.917,0,0,1,1.591-.013,11.264,11.264,0,0,0,5.669-.827.576.576,0,0,1,.69.177c1.324,1.84,1.612,4.536,3.73,7.57A3.745,3.745,0,0,1,31.868,310c-.9.667-1.582,1.319-2.249,1.26a1.334,1.334,0,0,0-1.3,1.8,6.96,6.96,0,0,0,2.762,3.017,3.739,3.739,0,0,0,2.574.136,5.89,5.89,0,0,0,3.784-3.207,3.328,3.328,0,0,1,.46-.213,1.671,1.671,0,0,0,1.663-.67,2.727,2.727,0,0,0,.122-2.827,5.452,5.452,0,0,0-1.94-1.848c-.854-.584-1.36-2.105-1.85-3.576a13.544,13.544,0,0,0-1.46-3.365,3.719,3.719,0,0,1-.456-.905l6.336,3.719c.708.416.732.384.618,1.479a4.881,4.881,0,0,0,.083,1.995,5.586,5.586,0,0,0,2.021,2.473c.157.4.013,1.667.966,2.39a2.684,2.684,0,0,0,2.471.121c.533-.233,1.906.06,2.765-1.02a1.976,1.976,0,0,0,.008-2.383l-.853-1.733c.521-.005,1.276,0,1.8,0,.273,0,1,0,2.884-1.834a6.567,6.567,0,0,0,2.09-3.038c.851-4.783.824-4.715.939-5.047a2.13,2.13,0,0,0,1.543-.069,2.347,2.347,0,0,0,1.249-1.432.259.259,0,0,1,.1.086,1.719,1.719,0,0,0,1.6.8,1.823,1.823,0,0,0,.952-.37c1.058-.8,1.78-1.812,2.609-2.548a5.513,5.513,0,0,1,1.416-.891,1.417,1.417,0,0,1-.026.49,4.429,4.429,0,0,1-2.35,2.429c-.628.355-1.973,1.42-.908,3.63a2.363,2.363,0,0,0,2.121,1.316,4.136,4.136,0,0,0,1.491-.345c.781-.289,1.226-.427,1.755-.1a1.753,1.753,0,0,1,.032.988c-.019.042-.046.1-.222.149a20,20,0,0,1-4.066.707c-.665.066-1.42.141-2.369.264-1.309.17-3.288.427-4.584,1.831a7.278,7.278,0,0,0-.862,1.219c-1.008,1.67-1.032.812-2.237,1.867a3.5,3.5,0,0,0-.91,3.569,8.188,8.188,0,0,0,3.01,4.044c1.515.744,3.617.1,5.221-.415,4.248-1.356,3.466-.031,5.541-.014h.024c1.5,0,2.192-.957,4.125-2.043a1.215,1.215,0,0,0-1.19-2.119Z" transform="translate(-0.003 -242.987)"/>
        <path id="Trazado_897387" data-name="Trazado 897387" d="M191.755,29.5c-2.7.017-8,.042-8.81.007a8.016,8.016,0,0,0-5.807,2.164l-7.169,6.762a3.611,3.611,0,0,0-1.342,2.3c-.1,1.346.814,1.856.146,2.592-1.2,1.322-3.726-.045-3.173-.659a7.7,7.7,0,0,0,1.242-1.862,2.835,2.835,0,0,0-1.675-3.9c-4.845-1.61-7.364-2.7-10.1-2.126-3.5.735-5.566,3.905-7.268,6.972-3.4,6.127-4.3,5.026-6.636,6.684-.564.4-4.259,4.3-3.323,6.524a3.408,3.408,0,0,0,2.919,2.045,5.068,5.068,0,0,0,2.851-.65c-.073,2.053.072,4.567,1.047,5.808.822,1.046,2.25,1.322,3.679.09a13.722,13.722,0,0,0,3.639-7.144,3.018,3.018,0,0,0-1.158-2.573l-.1-.087c.133-.991.543-1.492,1.2-3.81.419-1.47.781-2.739,1.906-3.442a1.122,1.122,0,0,1,1.34.056c.118.106.432.389,0,1.322-.466,1.018-1.373,1.957-1.925,3.252-.7,1.642-.517,3.914,1.2,4.89,2.651,1.5,4.874-1.513,6.568-1.265a10.251,10.251,0,0,1-1.564,4.136,3.082,3.082,0,0,1-3.525,1.268,1.213,1.213,0,0,0-.723-.107,3.082,3.082,0,0,0-2.385,3.066,22.382,22.382,0,0,1-.035,2.374c-.4,1.688-3.251,2.054-4.916,2.122l-4.826.2c-.02-1.056.76-3.411-.605-4.7-1.271-1.205-4.382-.943-5.086.843a4.651,4.651,0,0,0-.165,2.017c.084,1.333.091,1.227-.839,1.835-3.091,2.02-2.729,3.289-3.52,4.009a2.208,2.208,0,0,1-.719.365,1.215,1.215,0,0,0,.8,2.295,4.409,4.409,0,0,0,1.554-.862c1.406-1.278.619-2.076,3.215-3.773,2.85-1.862,1.722-3.363,1.917-4.91a1.841,1.841,0,0,1,1.134-.065c.285.558-.145,1.869-.114,3.031a2.153,2.153,0,0,0,2.515,2.349l4.839-.2c5.211-.212,6.782-2.289,7.183-3.994a13.62,13.62,0,0,0,.093-2.761,1.5,1.5,0,0,1,.218-.707,5.658,5.658,0,0,0,5.923-2.215,13.821,13.821,0,0,0,2.155-5.837c.175-.884-.869-2.278-2.841-2.208-2.371.085-4.085,2.136-5.053,1.587-.4-.226-.478-1.095-.167-1.823.425-1,1.328-1.945,1.9-3.194a3.373,3.373,0,0,0-.587-4.139,3.559,3.559,0,0,0-4.255-.312c-1.918,1.2-2.469,3.131-2.955,4.836-.652,2.287-1.184,2.986-1.3,4.42-.141,1.677,1.294,1.8,1.263,2.626-.045,1.209-1.868,4.888-3.036,5.574-.409-.617-.717-3.156-.265-6.672a1.216,1.216,0,0,0-2.012-1.063c-1.2,1.066-2.138,1.813-3.29,1.725a1.026,1.026,0,0,1-.831-.5c.061-.8,1.839-3.2,2.456-3.668,2.043-1.449,3.571-.669,7.355-7.487,1.3-2.351,3.007-5.219,5.642-5.773,2.009-.422,4.153.5,8.83,2.054a.4.4,0,0,1,.246.547c-.642,1.353-1.758,1.784-1.546,3.489.329,2.633,4.987,4.444,7.471,1.706,1.691-1.863.449-3.658.478-4.04.013-.175.445-.581.587-.715l7.169-6.762a5.565,5.565,0,0,1,4.035-1.5c.818.035,5.451.015,7.707,0V37.73a1.215,1.215,0,0,0,2.43,0V30.715a1.215,1.215,0,0,0-1.223-1.215Z" transform="translate(-110.035 -29.5)"/>
      </g>
    </g>
  </g>
</svg>
