<svg id="Grupo_1108075" data-name="Grupo 1108075" xmlns="http://www.w3.org/2000/svg" width="80" height="80" viewBox="0 0 80 80">
  <circle id="Elipse_11500" data-name="Elipse 11500" cx="40" cy="40" r="40" fill="#fff"/>
  <g id="Grupo_1108091" data-name="Grupo 1108091" transform="translate(8.406 7.889)">
    <g id="Layer_1" data-name="Layer 1">
      <path id="Trazado_898271" data-name="Trazado 898271" d="M38,17v1.63A4.375,4.375,0,0,1,33.63,23H32V21.37A4.374,4.374,0,0,1,36.37,17Z" fill="#7cb342"/>
      <path id="Trazado_898272" data-name="Trazado 898272" d="M26,17h1.626A4.374,4.374,0,0,1,32,21.374V23H30.374A4.374,4.374,0,0,1,26,18.626V17Z" transform="translate(58 40) rotate(180)" fill="#7cb342"/>
      <path id="Trazado_898273" data-name="Trazado 898273" d="M38,17v1.63A4.375,4.375,0,0,1,33.63,23H32Z" fill="#679f42"/>
      <path id="Trazado_898274" data-name="Trazado 898274" d="M26,17h1.63A4.375,4.375,0,0,1,32,21.37V23Z" fill="#679f42"/>
      <path id="Trazado_898275" data-name="Trazado 898275" d="M60,35a7.989,7.989,0,0,1-8,8H12a8,8,0,0,1-8-8Z" fill="#edeff0"/>
      <path id="Trazado_898276" data-name="Trazado 898276" d="M60,35a7.989,7.989,0,0,1-8,8H32V35Z" fill="#cfd8dc"/>
      <path id="Trazado_898277" data-name="Trazado 898277" d="M52,43v2a2.006,2.006,0,0,1-2,2H14a2.006,2.006,0,0,1-2-2V43Z" fill="#cfd8dc"/>
      <path id="Trazado_898278" data-name="Trazado 898278" d="M52,43v2a2.006,2.006,0,0,1-2,2H32V43Z" fill="#b0bec5"/>
      <path id="Trazado_898279" data-name="Trazado 898279" d="M51.38,35H12.62a2.762,2.762,0,0,1,3.33-2.31h.01l-.01-.02a2.764,2.764,0,0,1,3.73-3.72h.01a2.772,2.772,0,0,1,4.57-2.64,2.758,2.758,0,0,1,2.79-2.63,2.707,2.707,0,0,1,2.31,1.28l.01-.04a2.761,2.761,0,0,1,5.26,0l.01.04a2.772,2.772,0,0,1,5.1,1.35,2.772,2.772,0,0,1,4.57,2.64h.01a2.765,2.765,0,0,1,3.73,3.72l-.01.02h.01A2.762,2.762,0,0,1,51.38,35Z" fill="#ffd54f"/>
      <path id="Trazado_898280" data-name="Trazado 898280" d="M51.38,35H32V23a2.711,2.711,0,0,1,2.63,1.92l.01.04a2.772,2.772,0,0,1,5.1,1.35,2.772,2.772,0,0,1,4.57,2.64h.01a2.765,2.765,0,0,1,3.73,3.72l-.01.02h.01A2.762,2.762,0,0,1,51.38,35Z" fill="#ffcb29"/>
    </g>
    <g id="Layer_2" data-name="Layer 2">
      <path id="Trazado_898281" data-name="Trazado 898281" d="M60,34H52.125a3.753,3.753,0,0,0-2.767-2.313,3.821,3.821,0,0,0-4.046-4.043,3.829,3.829,0,0,0-4.946-2.856,3.791,3.791,0,0,0-3.254-2.107A5.341,5.341,0,0,0,39,18.625V17a1,1,0,0,0-1-1H36.374A5.362,5.362,0,0,0,32,18.274,5.362,5.362,0,0,0,27.626,16H26a1,1,0,0,0-1,1v1.625a5.341,5.341,0,0,0,1.887,4.055,3.793,3.793,0,0,0-3.253,2.108,3.83,3.83,0,0,0-4.947,2.851,3.819,3.819,0,0,0-4.041,4.046A3.752,3.752,0,0,0,11.874,34H4a1,1,0,0,0-1,1,9.01,9.01,0,0,0,8,8.941V45a3,3,0,0,0,3,3H50a3,3,0,0,0,3-3V43.941A9.01,9.01,0,0,0,61,35a1,1,0,0,0-1-1ZM36.374,18H37a3.52,3.52,0,0,1-4,4,3.48,3.48,0,0,1,3.374-4ZM27,18a3.52,3.52,0,0,1,4,4,3.52,3.52,0,0,1-4-4ZM14.385,33.912a1.685,1.685,0,0,1,1.354-.243,1.014,1.014,0,0,0,1.1-1.454,1.767,1.767,0,0,1,2.395-2.372,1,1,0,0,0,1.438-1.109,1.759,1.759,0,0,1,2.935-1.666,1.007,1.007,0,0,0,1.657-.705,1.759,1.759,0,0,1,3.251-.869,1.019,1.019,0,0,0,1.8-.268,1.759,1.759,0,0,1,3.376.04,1,1,0,0,0,1.792.228,1.766,1.766,0,0,1,3.251.869,1,1,0,0,0,1.679.686,1.759,1.759,0,0,1,2.905,1.721,1.015,1.015,0,0,0,1.461,1.065,1.759,1.759,0,0,1,2.372,2.393,1,1,0,0,0,1.114,1.438A1.659,1.659,0,0,1,49.731,34H14.269c.037-.031.076-.06.116-.088ZM51,45a1,1,0,0,1-1,1H14a1,1,0,0,1-1-1V44H51Zm1-3H12a7.011,7.011,0,0,1-6.929-6H58.929A7.011,7.011,0,0,1,52,42Z"/>
    </g>
  </g>
</svg>
