<svg id="Grupo_1108095" data-name="Grupo 1108095" xmlns="http://www.w3.org/2000/svg" width="80" height="80" viewBox="0 0 80 80">
  <circle id="Elipse_11500" data-name="Elipse 11500" cx="40" cy="40" r="40" fill="#fff"/>
  <g id="Filled_outline" data-name="Filled outline" transform="translate(-4.051 -4.051)">
    <path id="Trazado_898284" data-name="Trazado 898284" d="M384.9,400a6.04,6.04,0,0,0,12.05,0Z" transform="translate(-325.784 -339.119)" fill="#d65246"/>
    <path id="Trazado_898285" data-name="Trazado 898285" d="M64.415,200A8.415,8.415,0,0,0,56,208.415v.8a31.924,31.924,0,0,0,9.35,22.573H93.4a31.924,31.924,0,0,0,9.35-22.574v-.8A8.415,8.415,0,0,0,94.336,200Z" transform="translate(-35.325 -162.494)" fill="#ffb431"/>
    <path id="Trazado_898286" data-name="Trazado 898286" d="M272.415,136a8.415,8.415,0,1,0,8.415,8.415A8.415,8.415,0,0,0,272.415,136Zm0,13.09a4.675,4.675,0,1,1,4.675-4.675A4.675,4.675,0,0,1,272.415,149.09Z" transform="translate(-219.014 -105.975)" fill="#eaeae8"/>
    <path id="Trazado_898287" data-name="Trazado 898287" d="M41.765,68.155V63.013a2.338,2.338,0,0,0-4.675,0V58.338a2.338,2.338,0,0,0-4.675,0v2.338L29.61,57.87a2.645,2.645,0,0,0-3.74,3.74l2.805,2.805H26.338a2.338,2.338,0,0,0,0,4.675h4.675a2.338,2.338,0,0,0,0,4.675h4.675a2.338,2.338,0,0,0,0,4.675H46.441V67.688a2.338,2.338,0,1,0-4.675,0Z" transform="translate(-7.065 -35.325)" fill="#7eb357"/>
    <path id="Trazado_898288" data-name="Trazado 898288" d="M240.52,32,232,40.52A6.025,6.025,0,1,0,240.52,32Z" transform="translate(-190.754 -14.129)" fill="#d65246"/>
    <path id="Trazado_898289" data-name="Trazado 898289" d="M104,280h3.74v3.74H104Z" transform="translate(-77.715 -233.144)" fill="#f88400"/>
    <path id="Trazado_898290" data-name="Trazado 898290" d="M400,112h3.74v3.74H400Z" transform="translate(-339.119 -84.78)" fill="#f88400"/>
    <path id="Trazado_898291" data-name="Trazado 898291" d="M234.285,249.765h5.143a2.338,2.338,0,0,0,0-4.675H244.1a2.338,2.338,0,1,0,0-4.675h-2.338l2.805-2.805a2.645,2.645,0,0,0-3.74-3.74l-2.805,2.805v-2.338a2.338,2.338,0,0,0-4.675,0v4.675a2.338,2.338,0,0,0-4.675,0v4.675a2.338,2.338,0,0,0-4.675,0v10.753h10.753a2.338,2.338,0,1,0,0-4.675Z" transform="translate(-183.689 -190.754)" fill="#7eb357"/>
    <path id="Trazado_898292" data-name="Trazado 898292" d="M102.751,272a8.415,8.415,0,0,1-8.415,8.415H64.415A8.415,8.415,0,0,1,56,272v.8a31.924,31.924,0,0,0,9.35,22.573H93.4a31.924,31.924,0,0,0,9.35-22.574Z" transform="translate(-35.325 -226.079)" fill="#eaeae8"/>
    <path id="Trazado_898293" data-name="Trazado 898293" d="M56,440a6.04,6.04,0,0,0,12.05,0Z" transform="translate(-35.325 -374.444)" fill="#d65246"/>
    <g id="Grupo_1108096" data-name="Grupo 1108096" transform="translate(33.764 16.935)">
      <path id="Trazado_898294" data-name="Trazado 898294" d="M171.369,280.813a1.844,1.844,0,1,0-2.557,2.557l1.945,1.3,1.908-1.909Z" transform="translate(-167.99 -250.071)" fill="#fdd560"/>
      <path id="Trazado_898295" data-name="Trazado 898295" d="M212.675,392.518v2.805l-2.383.477a1.916,1.916,0,1,1,0-3.758Z" transform="translate(-203.324 -348.993)" fill="#fdd560"/>
      <path id="Trazado_898296" data-name="Trazado 898296" d="M353.3,56.812a1.844,1.844,0,1,1,2.557,2.557l-1.945,1.3L352,58.758Z" transform="translate(-330.493 -52.251)" fill="#fdd560"/>
      <rect id="Rect치ngulo_401785" data-name="Rect치ngulo 401785" width="5" height="5" rx="2.5" transform="translate(1.287 0.116)" fill="#fdd560"/>
      <rect id="Rect치ngulo_401786" data-name="Rect치ngulo 401786" width="5" height="5" rx="2.5" transform="translate(15.287 49.116)" fill="#fdd560"/>
    </g>
    <path id="Trazado_898297" data-name="Trazado 898297" d="M71.166,88.206H65.582q.142-.322.278-.649a32.715,32.715,0,0,0,2.5-12.575v-.8a9.289,9.289,0,0,0-2.739-6.611,9.413,9.413,0,0,0-1.416-1.164l-1.04,1.554a7.475,7.475,0,0,1,.51,12.062,3.272,3.272,0,0,0-3.263-3.035h-.08l1.209-1.209a3.584,3.584,0,0,0,.2-4.846,9.339,9.339,0,0,0,1.011-4.23c0-.153,0-.317-.013-.5,0-.02,0-.039,0-.058a9.351,9.351,0,0,0-14.528-7.214l1.04,1.554A7.481,7.481,0,0,1,60.87,66.291c0,.013,0,.026,0,.039.006.137.009.258.009.37a7.476,7.476,0,0,1-.7,3.162,3.585,3.585,0,0,0-2.169-.055l.007-.01A5.588,5.588,0,1,0,47.9,65.579,5.711,5.711,0,0,0,49.11,70.3a3.256,3.256,0,0,0-.384,1.539v.674a7.784,7.784,0,0,1-2.759-6.649,7.418,7.418,0,0,1,1.858-4.154l-1.393-1.247a9.275,9.275,0,0,0-2.192,4.364H40.311V60.623a3.273,3.273,0,0,0-4.675-2.957V55.948a3.273,3.273,0,0,0-4.675-2.957V51.273a3.273,3.273,0,0,0-6.545,0v.08l-1.209-1.209a3.58,3.58,0,1,0-5.062,5.062l1.209,1.209h-.08a3.246,3.246,0,0,0-1.964.655l1.123,1.5a1.389,1.389,0,0,1,.84-.28H21.61a.935.935,0,0,0,.661-1.6l-2.805-2.805a1.71,1.71,0,1,1,2.418-2.418l2.805,2.805a.935.935,0,0,0,1.6-.661V51.273a1.4,1.4,0,1,1,2.805,0v5.143a.935.935,0,0,0,1.87,0v-.468a1.4,1.4,0,1,1,2.805,0V61.09a.935.935,0,0,0,1.87,0v-.468a1.4,1.4,0,1,1,2.805,0v8.5L25.076,55.754l-1.322,1.322L37.118,70.441h-8.5a1.4,1.4,0,0,1,0-2.805h.468a.935.935,0,1,0,0-1.87H23.948a1.4,1.4,0,1,1,0-2.805h.468a.935.935,0,1,0,0-1.87H19.273a1.4,1.4,0,0,1-1.4-1.4H16a3.276,3.276,0,0,0,3.273,3.273h1.718a3.272,3.272,0,0,0,1.681,4.416,9.317,9.317,0,0,0-2.932,6.8v.8a32.621,32.621,0,0,0,5.3,17.9H20.675a.935.935,0,0,0-.935.935,6.77,6.77,0,0,0,6.96,6.545,6.77,6.77,0,0,0,6.96-6.545.935.935,0,0,0-.935-.935H27.3a30.764,30.764,0,0,1-5.23-12.531,9.328,9.328,0,0,0,7.017,3.181H59.011a9.329,9.329,0,0,0,7.014-3.177,30.943,30.943,0,0,1-1.892,6.488c-.268.646-.556,1.28-.857,1.885a30.932,30.932,0,0,1-5.59,7.894h-.544v1.87h.935a.935.935,0,0,0,.661-.274,33,33,0,0,0,2.954-3.391,7.235,7.235,0,0,0,3.45.86,6.77,6.77,0,0,0,6.96-6.545.935.935,0,0,0-.935-.935ZM26.7,98.491a5.012,5.012,0,0,1-4.988-3.74h9.975A5.012,5.012,0,0,1,26.7,98.491ZM50.432,68.969a3.841,3.841,0,0,1-.768-2.267h7.469A3.945,3.945,0,0,1,54.8,70.158a3.275,3.275,0,0,0-4.371-1.189ZM53.4,62.96a3.754,3.754,0,0,1,3.238,1.87H50.163A3.755,3.755,0,0,1,53.4,62.96ZM21.61,74.181a7.457,7.457,0,0,1,3.858-6.545h.2a3.273,3.273,0,0,0,2.956,4.675H38.988l2.531,2.531,1.322-1.322-2.531-2.531V66.7H44.06a9.817,9.817,0,0,0,2.758,6.584,3.274,3.274,0,0,0-2.767,3.234v1.719a3.273,3.273,0,0,0-4.675,2.956v.468H29.09a7.489,7.489,0,0,1-7.48-7.48Zm19.636,7.48v-.468a1.4,1.4,0,1,1,2.805,0v.468Zm10.673,0,4.014-4.014L54.61,76.325l-5.336,5.336H45.921V76.518a1.4,1.4,0,1,1,2.805,0v.468H50.6V71.843a1.391,1.391,0,0,1,.4-.975l.018-.019a1.4,1.4,0,0,1,2.353.666,1.376,1.376,0,0,1,.039.328v2.338a.935.935,0,0,0,1.6.661L57.8,72.037a1.709,1.709,0,0,1,2.216-.173,1.73,1.73,0,0,1,.2.173,1.712,1.712,0,0,1,0,2.418L57.415,77.26a.935.935,0,0,0,.661,1.6h2.338a1.4,1.4,0,0,1,.963,2.419,7.448,7.448,0,0,1-2.366.386ZM65.141,93.816a5.4,5.4,0,0,1-2.353-.529,32.938,32.938,0,0,0,1.9-3.211h5.441A5.012,5.012,0,0,1,65.141,93.816Z" transform="translate(0 -28.26)"/>
    <path id="Trazado_898298" data-name="Trazado 898298" d="M224.274,34.116a6.96,6.96,0,0,0,9.843-9.843.935.935,0,0,0-1.322,0l-8.52,8.52a.935.935,0,0,0,0,1.322Zm9.122-7.8a5.092,5.092,0,0,1-7.078,7.078Z" transform="translate(-183.689 -7.065)"/>
    <path id="Trazado_898299" data-name="Trazado 898299" d="M169.87,23.48h3.74a1.872,1.872,0,0,0,1.87-1.87V17.87A1.872,1.872,0,0,0,173.61,16h-3.74A1.872,1.872,0,0,0,168,17.87v3.74A1.872,1.872,0,0,0,169.87,23.48Zm0-5.61h3.74v3.74H169.87Z" transform="translate(-134.235)"/>
    <path id="Trazado_898300" data-name="Trazado 898300" d="M100.675,272h-3.74a.935.935,0,0,0-.935.935v3.74a.935.935,0,0,0,.935.935h3.74a.935.935,0,0,0,.935-.935v-3.74A.935.935,0,0,0,100.675,272Zm-.935,3.74H97.87v-1.87h1.87Z" transform="translate(-70.65 -226.079)"/>
    <path id="Trazado_898301" data-name="Trazado 898301" d="M392,104.935v3.74a.935.935,0,0,0,.935.935h3.74a.935.935,0,0,0,.935-.935v-3.74a.935.935,0,0,0-.935-.935h-3.74A.935.935,0,0,0,392,104.935Zm1.87.935h1.87v1.87h-1.87Z" transform="translate(-332.054 -77.715)"/>
    <path id="Trazado_898302" data-name="Trazado 898302" d="M166.386,275.184l-1.3-1.945a2.779,2.779,0,1,0-3.854,3.854l1.945,1.3a.935.935,0,0,0,1.18-.117l1.909-1.908A.935.935,0,0,0,166.386,275.184Zm-2.805,1.224-1.308-.872a.909.909,0,0,1,.5-1.665c.03,0,.06,0,.09,0a.906.906,0,0,1,.666.4l.872,1.308Z" transform="translate(-127.167 -226.08)"/>
    <path id="Trazado_898303" data-name="Trazado 898303" d="M202.834,389.7a2.868,2.868,0,0,0,.563-.056l2.383-.477a.935.935,0,0,0,.752-.917V385.45a.935.935,0,0,0-.752-.917l-2.383-.477a2.852,2.852,0,1,0-.563,5.648Zm-.618-3.611a.978.978,0,0,1,.621-.222.989.989,0,0,1,.194.019l1.631.326v1.272l-1.631.326a.982.982,0,0,1-.815-1.721Z" transform="translate(-162.481 -324.99)"/>
    <path id="Trazado_898304" data-name="Trazado 898304" d="M346.179,54.268a.935.935,0,0,0,1.18.117l1.945-1.3a2.779,2.779,0,1,0-3.854-3.853l-1.3,1.945a.935.935,0,0,0,.117,1.18Zm.828-4a.909.909,0,1,1,1.26,1.26l-1.308.872-.825-.825Z" transform="translate(-289.661 -28.256)"/>
    <path id="Trazado_898305" data-name="Trazado 898305" d="M194.7,432h-3.74a1.872,1.872,0,0,0-1.87,1.87v1.87H176v1.87h13.09a1.872,1.872,0,0,0,1.87,1.87h3.74a1.872,1.872,0,0,0,1.87-1.87v-3.74A1.872,1.872,0,0,0,194.7,432Zm0,5.61h-3.74v-3.74h3.74v3.74Z" transform="translate(-141.3 -367.379)"/>
  </g>
</svg>
