<svg xmlns="http://www.w3.org/2000/svg" width="100" height="100" viewBox="0 0 100 100">
  <g id="Grupo_1108030" data-name="Grupo 1108030" transform="translate(-195.051 -668)">
    <circle id="Elipse_11506" data-name="Elipse 11506" cx="50" cy="50" r="50" transform="translate(195.051 668)" fill="#fcf2ce"/>
    <g id="Grupo_1108020" data-name="Grupo 1108020" transform="translate(211.051 684)">
      <path id="Trazado_898202" data-name="Trazado 898202" d="M65,29a32.9,32.9,0,0,1-.55,6,32,32,0,0,1-3.61,10,31.28,31.28,0,0,1-16,14H23.2a31.28,31.28,0,0,1-16-14A32,32,0,0,1,3.55,35,32.9,32.9,0,0,1,3,29Z" fill="#f9dcb2" stroke="#000" stroke-linecap="round" stroke-linejoin="round" stroke-width="2"/>
      <path id="Trazado_898203" data-name="Trazado 898203" d="M54,65H14l9.2-6H44.8Z" fill="#f76346" stroke="#000" stroke-linecap="round" stroke-linejoin="round" stroke-width="2"/>
      <path id="Trazado_898204" data-name="Trazado 898204" d="M64.45,35a32,32,0,0,1-3.61,10H7.16A32,32,0,0,1,3.55,35Z" fill="#8ecac1" stroke="#000" stroke-linecap="round" stroke-linejoin="round" stroke-width="2"/>
      <g id="Grupo_1108017" data-name="Grupo 1108017">
        <path id="Trazado_898205" data-name="Trazado 898205" d="M25.44,3c0,1.28-2.88,1.28-2.88,2.56s2.88,1.28,2.88,2.57-2.88,1.29-2.88,2.57,2.88,1.29,2.88,2.57-2.88,1.29-2.88,2.57,2.88,1.29,2.88,2.58S22.56,19.71,22.56,21" fill="none" stroke="#000" stroke-linecap="round" stroke-linejoin="round" stroke-width="2"/>
        <path id="Trazado_898206" data-name="Trazado 898206" d="M35.44,3c0,1.28-2.88,1.28-2.88,2.56s2.88,1.28,2.88,2.57-2.88,1.29-2.88,2.57,2.88,1.29,2.88,2.57-2.88,1.29-2.88,2.57,2.88,1.29,2.88,2.58S32.56,19.71,32.56,21" fill="none" stroke="#000" stroke-linecap="round" stroke-linejoin="round" stroke-width="2"/>
        <path id="Trazado_898207" data-name="Trazado 898207" d="M45.44,3c0,1.28-2.88,1.28-2.88,2.56s2.88,1.28,2.88,2.57-2.88,1.29-2.88,2.57,2.88,1.29,2.88,2.57-2.88,1.29-2.88,2.57,2.88,1.29,2.88,2.58S42.56,19.71,42.56,21" fill="none" stroke="#000" stroke-linecap="round" stroke-linejoin="round" stroke-width="2"/>
        <circle id="Elipse_11502" data-name="Elipse 11502" cx="1" cy="1" r="1" transform="translate(10 39)" fill="none" stroke="#000" stroke-linecap="round" stroke-linejoin="round" stroke-width="2"/>
        <circle id="Elipse_11503" data-name="Elipse 11503" cx="1" cy="1" r="1" transform="translate(25.33 39)" fill="none" stroke="#000" stroke-linecap="round" stroke-linejoin="round" stroke-width="2"/>
        <circle id="Elipse_11504" data-name="Elipse 11504" cx="1" cy="1" r="1" transform="translate(40.67 39)" fill="none" stroke="#000" stroke-linecap="round" stroke-linejoin="round" stroke-width="2"/>
        <circle id="Elipse_11505" data-name="Elipse 11505" cx="1" cy="1" r="1" transform="translate(56 39)" fill="none" stroke="#000" stroke-linecap="round" stroke-linejoin="round" stroke-width="2"/>
      </g>
    </g>
  </g>
</svg>
