<svg id="Grupo_1108032" data-name="Grupo 1108032" xmlns="http://www.w3.org/2000/svg" width="80" height="80" viewBox="0 0 80 80">
  <circle id="Elipse_11500" data-name="Elipse 11500" cx="40" cy="40" r="40" fill="#fff"/>
  <g id="_019---Fondue" data-name="019---Fondue" transform="translate(11.97 9.955)">
    <g id="Icons" transform="translate(1.015 1.015)">
      <path id="Rectangle-path" d="M11,41h4V55H11Z" transform="translate(-0.045 -0.925)" fill="#624421"/>
      <path id="Rectangle-path-2" data-name="Rectangle-path" d="M37,41h4V55H37Z" transform="translate(-0.045 -0.925)" fill="#624421"/>
      <path id="Shape" d="M53.12,6.12,44.24,15H43a2.006,2.006,0,0,0-2-2H37.76L48.88,1.88a2.991,2.991,0,0,1,2.98-.75l.01.01a2.99,2.99,0,0,1,1.25,4.98Z" transform="translate(-0.045 -0.925)" fill="sienna"/>
      <path id="Shape-2" data-name="Shape" d="M53.12,1.88a2.992,2.992,0,0,0-3.62-.47,2.991,2.991,0,0,1,.619,4.71l-7.6,7.6A1.98,1.98,0,0,1,43,15h1.24l8.88-8.88a2.994,2.994,0,0,0,0-4.24Z" transform="translate(-0.045 -0.925)" fill="#783e22"/>
      <path id="Shape-3" data-name="Shape" d="M16.36,13c-8.062,0-7.683-.079-8.26.22L1,6.12A3,3,0,1,1,5.24,1.88Z" transform="translate(-0.045 -0.925)" fill="sienna"/>
      <path id="Shape-4" data-name="Shape" d="M8.1,13.22A1.962,1.962,0,0,1,9,13H7.88Z" transform="translate(-0.045 -0.925)" fill="#783e22"/>
      <path id="Shape-5" data-name="Shape" d="M5.24,1.88a2.975,2.975,0,0,0-3.625-.465C2.192,1.749,1.24.88,13.36,13h3Z" transform="translate(-0.045 -0.925)" fill="#783e22"/>
      <path id="Shape-6" data-name="Shape" d="M29,49.2a3.007,3.007,0,0,1-6,0c0-1.06,1.41-2.64,2.3-3.53a.984.984,0,0,1,1.4,0C27.59,46.56,29,48.14,29,49.2Z" transform="translate(-0.045 -0.925)" fill="#ffdc00"/>
      <path id="Shape-7" data-name="Shape" d="M47,57a2.006,2.006,0,0,1-2,2H7a2,2,0,0,1,0-4H45A2,2,0,0,1,47,57Z" transform="translate(-0.045 -0.925)" fill="sienna"/>
      <path id="Shape-8" data-name="Shape" d="M46.41,55.59A1.955,1.955,0,0,0,45,55H42a2,2,0,0,1,0,4h3a2,2,0,0,0,1.41-3.41Z" transform="translate(-0.045 -0.925)" fill="#783e22"/>
      <path id="Shape-9" data-name="Shape" d="M47,39a2.006,2.006,0,0,1-2,2H7a2,2,0,0,1,0-4H45A2,2,0,0,1,47,39Z" transform="translate(-0.045 -0.925)" fill="sienna"/>
      <path id="Shape-10" data-name="Shape" d="M46.41,37.59A1.955,1.955,0,0,0,45,37H42a2,2,0,0,1,0,4h3a2,2,0,0,0,1.41-3.41Z" transform="translate(-0.045 -0.925)" fill="#783e22"/>
      <path id="Shape-11" data-name="Shape" d="M50.8,17.18,49.5,31.54A6.009,6.009,0,0,1,43.52,37H8.48A6.009,6.009,0,0,1,2.5,31.54L1.2,17.18A1.994,1.994,0,0,1,3.19,15H7V25a2,2,0,1,0,4,0V23a2,2,0,0,1,4,0v6a2,2,0,0,0,4,0V15H35V27a2,2,0,0,0,4,0V23a2.005,2.005,0,0,1,2-2,2.006,2.006,0,0,0,2-2V15h5.81a1.994,1.994,0,0,1,1.99,2.18Z" transform="translate(-0.045 -0.925)" fill="#f44335"/>
      <path id="Shape-12" data-name="Shape" d="M48.81,15h-3a1.994,1.994,0,0,1,1.99,2.18L46.5,31.54A6.009,6.009,0,0,1,40.52,37h3a6.009,6.009,0,0,0,5.98-5.46l1.3-14.36A1.994,1.994,0,0,0,48.81,15Z" transform="translate(-0.045 -0.925)" fill="#c81e1e"/>
      <path id="Shape-13" data-name="Shape" d="M19,15V29a2,2,0,0,1-4,0V23a2,2,0,0,0-4,0v2a2,2,0,0,1-4,0V15a2.013,2.013,0,0,1,2-2h8A2.006,2.006,0,0,1,19,15Z" transform="translate(-0.045 -0.925)" fill="#ffe0b2"/>
      <path id="Shape-14" data-name="Shape" d="M17,13H14a2.006,2.006,0,0,1,2,2V29a1.98,1.98,0,0,1-.5,1.308A2,2,0,0,0,19,29V15a2.006,2.006,0,0,0-2-2Z" transform="translate(-0.045 -0.925)" fill="#dfc49c"/>
      <path id="Shape-15" data-name="Shape" d="M43,15v4a2.006,2.006,0,0,1-2,2,2,2,0,0,0-2,2v4a2,2,0,0,1-4,0V15a2.006,2.006,0,0,1,2-2h4A2.006,2.006,0,0,1,43,15Z" transform="translate(-0.045 -0.925)" fill="#ffe0b2"/>
      <path id="Shape-16" data-name="Shape" d="M41,13H38a2.006,2.006,0,0,1,2,2v4a2.006,2.006,0,0,1-2,2,2,2,0,0,0-2,2v4a1.98,1.98,0,0,1-.5,1.308A2,2,0,0,0,39,27V23a2.005,2.005,0,0,1,2-2,2.006,2.006,0,0,0,2-2V15a2.006,2.006,0,0,0-2-2Z" transform="translate(-0.045 -0.925)" fill="#dfc49c"/>
    </g>
    <path id="Shape-17" data-name="Shape" d="M49.173,2.173,38.346,13H38a3,3,0,0,0-2.816,2H20.816A3,3,0,0,0,18,13c-.322,0,.971,1.2-11.053-10.827A4,4,0,1,0,1.293,7.827l6.345,6.345A2.991,2.991,0,0,0,7.184,15H4.19A3,3,0,0,0,1.2,18.271L2.5,32.63a6.965,6.965,0,0,0,3.3,5.339A2.994,2.994,0,0,0,8,43h3V55H8a3,3,0,0,0,0,6H46a3,3,0,0,0,0-6H43V43h3a2.994,2.994,0,0,0,2.194-5.031,6.965,6.965,0,0,0,3.3-5.339l1.3-14.356A3,3,0,0,0,49.81,15H47.654l7.173-7.173a4,4,0,1,0-5.654-5.654ZM38,15h4a1,1,0,0,1,1,1v4a1,1,0,0,1-1,1,3,3,0,0,0-3,3v4a1,1,0,0,1-2,0V16A1,1,0,0,1,38,15ZM19,16V30a1,1,0,0,1-2,0V24a3,3,0,0,0-6,0v2a1,1,0,0,1-2,0V16a1,1,0,0,1,1-1h8A1,1,0,0,1,19,16ZM2.707,3.587a2.053,2.053,0,0,1,2.826,0L14.946,13c-5.453,0-5.138-.025-5.582.071L2.707,6.413a2,2,0,0,1,0-2.826ZM13,43h2V55H13ZM37,55H28V53.865A3.838,3.838,0,0,0,31,50.2c0-1.853-2.555-4.257-3.338-4.949a1,1,0,0,0-1.324,0C25.555,45.943,23,48.347,23,50.2a3.838,3.838,0,0,0,3,3.665V55H17V43H37ZM27,50a1,1,0,0,0-1,1v.75a1.774,1.774,0,0,1-1-1.55c0-.531.957-1.778,2-2.825,1.043,1.045,2,2.292,2,2.825a1.774,1.774,0,0,1-1,1.55V51A1,1,0,0,0,27,50Zm20,8a1,1,0,0,1-1,1H8a1,1,0,0,1,0-2H46A1,1,0,0,1,47,58Zm-6-3H39V43h2Zm5-16a1,1,0,0,1,0,2H8a1,1,0,0,1,0-2Zm4.8-20.91L49.5,32.45A4.979,4.979,0,0,1,44.52,37H9.48A4.979,4.979,0,0,1,4.5,32.45L3.2,18.086A.994.994,0,0,1,4.19,17H7v9a3,3,0,0,0,6,0V24a1,1,0,0,1,2,0v6a3,3,0,0,0,6,0V17H35V28a3,3,0,0,0,6,0V24a1,1,0,0,1,1-1,3,3,0,0,0,3-3V17h4.81a.992.992,0,0,1,.99,1.09ZM53.413,6.413c-8.7,8.7-8.5,8.587-8.6,8.587A3,3,0,0,0,42,13h-.826l9.413-9.413a2,2,0,0,1,2.826,2.826Z" transform="translate(-0.03 -0.91)"/>
  </g>
</svg>
