<svg id="Grupo_1108059" data-name="Grupo 1108059" xmlns="http://www.w3.org/2000/svg" width="85" height="85" viewBox="0 0 85 85">
  <g id="Grupo_1108057" data-name="Grupo 1108057" transform="translate(1.371 1.371)">
    <g id="Grupo_1108051" data-name="Grupo 1108051" transform="translate(46.613)">
      <path id="Trazado_898223" data-name="Trazado 898223" d="M304.677,29.053a7.414,7.414,0,0,1-1.251,4.128l-1.491,2.238.816,1.222a11.477,11.477,0,0,1-1.434,14.477l-.752.752H293.5a29.154,29.154,0,0,0,2.949-12.82A24.06,24.06,0,0,0,280,16.226V10.742A2.741,2.741,0,0,1,282.742,8a8.871,8.871,0,0,1,7.936,4.9l.29.579a8.226,8.226,0,0,1,8.226,8.226l1.369.684a7.447,7.447,0,0,1,4.115,6.659Z" transform="translate(-280 -8)" fill="#fcd770"/>
    </g>
    <g id="Grupo_1108052" data-name="Grupo 1108052" transform="translate(34.3 8.226)">
      <path id="Trazado_898224" data-name="Trazado 898224" d="M236.915,78.825a29.155,29.155,0,0,1-2.949,12.82H217.721l-4.091-8.181a19.215,19.215,0,0,0-3.6-4.989L208.15,76.59q.388-.44.805-.857l5.887-5.887a19.194,19.194,0,0,0,5.621-13.571V56A24.06,24.06,0,0,1,236.915,78.825Z" transform="translate(-208.15 -56)" fill="#ffeaa7"/>
    </g>
    <g id="Grupo_1108053" data-name="Grupo 1108053" transform="translate(0 2.742)">
      <path id="Trazado_898225" data-name="Trazado 898225" d="M32.677,26.742v5.484A24.06,24.06,0,0,0,16.226,55.051a29.185,29.185,0,0,0,8.755,20.88A8.232,8.232,0,0,0,29.949,86.6c-.009.153-.014.308-.014.464a8.272,8.272,0,0,0,.091,1.227A6.785,6.785,0,0,1,18.968,83.02v-.069l-.281-.046A9.506,9.506,0,0,1,11.23,70.52l.883-2.649-.752-.752A11.475,11.475,0,0,1,9.926,52.641l.816-1.222L9.251,49.181a7.443,7.443,0,0,1,2.864-10.788l1.369-.684a8.226,8.226,0,0,1,8.226-8.226L22,28.9A8.871,8.871,0,0,1,29.935,24,2.741,2.741,0,0,1,32.677,26.742Z" transform="translate(-8 -24)" fill="#dfb28b"/>
    </g>
    <g id="Grupo_1108054" data-name="Grupo 1108054" transform="translate(8.226 10.968)">
      <path id="Trazado_898226" data-name="Trazado 898226" d="M87.555,96.722l4.091,8.181H66.968a2.738,2.738,0,0,0-2.742,2.742,8.194,8.194,0,0,0,2.1,5.484,8.209,8.209,0,0,0-1.566,2.576A29.185,29.185,0,0,1,56,94.825,24.06,24.06,0,0,1,72.452,72v.276a19.193,19.193,0,0,0,5.621,13.571l4,4,1.885,1.885A19.215,19.215,0,0,1,87.555,96.722Z" transform="translate(-56 -72)" fill="#ecc19c"/>
    </g>
    <g id="Grupo_1108055" data-name="Grupo 1108055" transform="translate(16.452 43.871)">
      <path id="Trazado_898227" data-name="Trazado 898227" d="M169.806,266.742a8.194,8.194,0,0,1-2.1,5.484,8.226,8.226,0,0,1-3.4,13.245c.009.153.014.308.014.464a8.226,8.226,0,0,1-8.226,8.226c-.156,0-.312-.005-.464-.014a8.225,8.225,0,0,1-11.8,4.439,8.221,8.221,0,0,1-13.864,0,8.225,8.225,0,0,1-11.8-4.439c-.153.009-.308.014-.464.014a8.217,8.217,0,0,1-8.226-8.226c0-.156.005-.312.014-.464a8.221,8.221,0,0,1-3.4-13.245,8.194,8.194,0,0,1-2.1-5.484A2.738,2.738,0,0,1,106.742,264h5.484v5.484a24.677,24.677,0,0,0,49.355,0V264h5.484a2.741,2.741,0,0,1,2.742,2.742Z" transform="translate(-104 -264)" fill="#fcd770"/>
    </g>
    <g id="Grupo_1108056" data-name="Grupo 1108056" transform="translate(24.677 43.871)">
      <path id="Trazado_898228" data-name="Trazado 898228" d="M201.355,264v5.484a24.677,24.677,0,0,1-49.355,0V264h49.355Z" transform="translate(-152 -264)" fill="#ffeaa7"/>
    </g>
  </g>
  <g id="Grupo_1108058" data-name="Grupo 1108058" transform="translate(0 0)">
    <path id="Trazado_898229" data-name="Trazado 898229" d="M85,47.984a4.118,4.118,0,0,0-4.113-4.113H71.619a12.843,12.843,0,0,0,.256-14.618l-.308-.462.985-1.477a8.815,8.815,0,0,0-3.392-12.775l-.65-.325a9.613,9.613,0,0,0-8.693-8.691A10.186,10.186,0,0,0,50.726,0a4.118,4.118,0,0,0-4.113,4.113V9.872a17.706,17.706,0,0,1-5.22,12.6l-5.748,5.747-3.006-3.006a17.7,17.7,0,0,1-5.22-12.6V6.855a4.118,4.118,0,0,0-4.113-4.113,10.186,10.186,0,0,0-9.091,5.523,9.613,9.613,0,0,0-8.693,8.691l-.65.325A8.815,8.815,0,0,0,1.481,30.055l.985,1.477-.308.462A12.843,12.843,0,0,0,3.762,48.2l.154.154L3.3,50.2a10.879,10.879,0,0,0,7.738,14.008,8.153,8.153,0,0,0,11.506,6.329,9.614,9.614,0,0,0,8.538,6.227,9.6,9.6,0,0,0,12.279,4.792,9.595,9.595,0,0,0,14.729,0A9.6,9.6,0,0,0,70.37,76.764a9.61,9.61,0,0,0,9.136-9.136,9.6,9.6,0,0,0,3.772-14.16A9.577,9.577,0,0,0,85,47.984ZM27.419,46.613H74.032v4.113a23.306,23.306,0,1,1-46.613,0ZM50.726,2.742a7.461,7.461,0,0,1,6.71,4.147L58.1,8.226h.847a6.863,6.863,0,0,1,6.855,6.855v.847l2.127,1.063a6.073,6.073,0,0,1,2.337,8.8l-2,3,1.322,1.983A10.1,10.1,0,0,1,68.331,43.52l-.351.351H63.594a30.361,30.361,0,0,0,2.213-11.449A25.4,25.4,0,0,0,49.355,8.629V4.113a1.373,1.373,0,0,1,1.371-1.371ZM43.332,24.414a20.41,20.41,0,0,0,5.954-12.858A22.657,22.657,0,0,1,63.065,32.422a27.629,27.629,0,0,1-2.45,11.449H46.089l-3.712-7.424A20.529,20.529,0,0,0,38.525,31.1l-.941-.941ZM30.7,27.156l5.886,5.886a17.79,17.79,0,0,1,3.338,4.632l3.1,6.2H20.565a4.118,4.118,0,0,0-4.113,4.113,9.577,9.577,0,0,0,1.722,5.484c-.054.077-.105.155-.157.234a27.668,27.668,0,0,1-7.049-18.538A22.657,22.657,0,0,1,24.746,14.3,20.411,20.411,0,0,0,30.7,27.156ZM19.125,68.548a5.421,5.421,0,0,1-5.415-5.415V61.9l-1.427-.238A8.136,8.136,0,0,1,5.9,51.067l1.151-3.453L5.7,46.262A10.1,10.1,0,0,1,4.439,33.515L5.76,31.532l-2-3a6.073,6.073,0,0,1,2.337-8.8L8.226,18.67v-.847a6.863,6.863,0,0,1,6.855-6.855h.847L16.6,9.631a7.462,7.462,0,0,1,6.71-4.147,1.373,1.373,0,0,1,1.371,1.371v4.516A25.4,25.4,0,0,0,8.226,35.164a30.4,30.4,0,0,0,8.567,21.251,9.6,9.6,0,0,0,5.153,11.213c0,.041.006.081.009.122a5.434,5.434,0,0,1-2.83.8ZM80.511,54.382a6.854,6.854,0,0,1-2.835,11.037l-.971.341.057,1.028c.008.143.012.271.012.389a6.863,6.863,0,0,1-6.855,6.855c-.12,0-.247,0-.389-.012L68.5,73.963l-.342.972a6.853,6.853,0,0,1-9.829,3.7L57.2,78l-.7,1.093a6.852,6.852,0,0,1-11.555,0L44.249,78l-1.13.638a6.854,6.854,0,0,1-9.829-3.7l-.342-.972-1.028.058c-.142.008-.269.012-.389.012a6.863,6.863,0,0,1-6.855-6.855c0-.119,0-.246.012-.389l.057-1.028-.971-.341A6.854,6.854,0,0,1,20.94,54.382l.819-.914-.819-.914a6.842,6.842,0,0,1-1.747-4.569,1.373,1.373,0,0,1,1.371-1.371h4.113v4.113a26.048,26.048,0,1,0,52.1,0V46.613h4.113a1.373,1.373,0,0,1,1.371,1.371,6.842,6.842,0,0,1-1.747,4.569l-.819.914Z" transform="translate(0 0)"/>
    <path id="Trazado_898230" data-name="Trazado 898230" d="M0,0H6.131V2.742H0Z" transform="translate(33.633 54.971) rotate(-26.565)"/>
    <path id="Trazado_898231" data-name="Trazado 898231" d="M0,0H6.131V2.742H0Z" transform="translate(41.854 63.196) rotate(-26.565)"/>
    <path id="Trazado_898232" data-name="Trazado 898232" d="M0,0H2.742V6.131H0Z" transform="translate(58.305 51.967) rotate(-63.435)"/>
    <path id="Trazado_898233" data-name="Trazado 898233" d="M0,0H2.742V6.131H0Z" transform="translate(55.557 65.673) rotate(-63.435)"/>
    <path id="Trazado_898234" data-name="Trazado 898234" d="M0,0H2.742V6.131H0Z" transform="translate(50.078 57.447) rotate(-63.435)"/>
    <circle id="Elipse_11508" data-name="Elipse 11508" cx="1.164" cy="1.164" r="1.164" transform="translate(44.219 49.65)"/>
    <ellipse id="Elipse_11509" data-name="Elipse 11509" cx="1.552" cy="1.164" rx="1.552" ry="1.164" transform="translate(46.547 35.686)"/>
    <ellipse id="Elipse_11510" data-name="Elipse 11510" cx="1.164" cy="1.552" rx="1.164" ry="1.552" transform="translate(55.08 27.152)"/>
    <ellipse id="Elipse_11511" data-name="Elipse 11511" cx="1.164" cy="1.552" rx="1.164" ry="1.552" transform="translate(13.964 27.152)"/>
    <ellipse id="Elipse_11512" data-name="Elipse 11512" cx="1.552" cy="1.164" rx="1.552" ry="1.164" transform="translate(27.152 30.255)"/>
    <circle id="Elipse_11513" data-name="Elipse 11513" cx="1.552" cy="1.552" r="1.552" transform="translate(21.722 38.013)"/>
    <circle id="Elipse_11514" data-name="Elipse 11514" cx="1.164" cy="1.164" r="1.164" transform="translate(35.686 60.511)"/>
    <circle id="Elipse_11515" data-name="Elipse 11515" cx="1.164" cy="1.164" r="1.164" transform="translate(65.941 55.08)"/>
    <ellipse id="Elipse_11516" data-name="Elipse 11516" cx="1.164" cy="1.552" rx="1.164" ry="1.552" transform="translate(49.65 68.268)"/>
    <path id="Trazado_898235" data-name="Trazado 898235" d="M0,0H2.742V6.131H0Z" transform="translate(19.936 27.279) rotate(-63.435)"/>
    <path id="Trazado_898236" data-name="Trazado 898236" d="M0,0H6.131V2.742H0Z" transform="translate(14.452 35.78) rotate(-26.565)"/>
    <path id="Trazado_898237" data-name="Trazado 898237" d="M0,0H2.742V6.131H0Z" transform="translate(28.156 38.248) rotate(-63.435)"/>
    <path id="Trazado_898238" data-name="Trazado 898238" d="M0,0H6.131V2.742H0Z" transform="translate(44.603 30.307) rotate(-26.565)"/>
    <path id="Trazado_898239" data-name="Trazado 898239" d="M0,0H2.742V6.131H0Z" transform="translate(50.093 21.809) rotate(-63.435)"/>
    <path id="Trazado_898240" data-name="Trazado 898240" d="M0,0H6.131V2.742H0Z" transform="translate(52.824 35.787) rotate(-26.565)"/>
  </g>
</svg>
