<svg id="Grupo_1108074" data-name="Grupo 1108074" xmlns="http://www.w3.org/2000/svg" width="80" height="80" viewBox="0 0 80 80">
  <circle id="Elipse_11500" data-name="Elipse 11500" cx="40" cy="40" r="40" fill="#fff"/>
  <g id="Grupo_1108074-2" data-name="Grupo 1108074" transform="translate(13.022 12.99)">
    <g id="Grupo_1108072" data-name="Grupo 1108072" transform="translate(0.791 0.824)">
      <path id="Trazado_898250" data-name="Trazado 898250" d="M85.475,206.823c0,7.935-9.521,7.935-15.869,7.935l-5.538-.5-3.191-.29c-9.521,0-18.361-2.956-20.049-9.309s4.619-13.543,14.088-16.059a27.323,27.323,0,0,1,7.791-.859c7.194.224,13.84,3.142,15.079,7.807a8.1,8.1,0,0,1,.263,1.716C82.994,199.176,85.475,202.062,85.475,206.823Z" transform="translate(-37.073 -168.736)" fill="#c76d33"/>
      <path id="Trazado_898251" data-name="Trazado 898251" d="M64.068,214.255l-3.191-.29c-9.521,0-18.361-2.956-20.049-9.309s4.619-13.543,14.088-16.059a27.323,27.323,0,0,1,7.791-.859c-3.27,2.971-10.6,11.876.247,25.031C63.386,213.294,63.755,213.788,64.068,214.255Z" transform="translate(-37.073 -168.736)" fill="#af602d"/>
      <path id="Trazado_898252" data-name="Trazado 898252" d="M65.09,278.669a1.581,1.581,0,0,0-2.007-2.071c-3.841,1.38-10.712,4.738-10.381,11.034.459,8.716,16.849,3.086,15.806-1.627a3.414,3.414,0,0,0-3.431-2.739,1.585,1.585,0,0,1-1.162-2.525A9.55,9.55,0,0,0,65.09,278.669Z" transform="translate(-47.93 -248.157)" fill="#a05423"/>
      <path id="Trazado_898253" data-name="Trazado 898253" d="M391.115,158.645a3.147,3.147,0,0,1,4.12.565,3.245,3.245,0,0,1,.794,2.286,1.586,1.586,0,0,0,.987,1.543,3.239,3.239,0,0,1,1.635,1.509,3.174,3.174,0,0,1-4.8,3.928,1.562,1.562,0,0,0-1.807-.079l-2.913,1.849-2.552-4.02,2.74-1.739a1.578,1.578,0,0,0,.61-1.945A3.177,3.177,0,0,1,391.115,158.645Z" transform="translate(-346.627 -142.253)" fill="#fbf198"/>
      <path id="Trazado_898254" data-name="Trazado 898254" d="M238.8,225.752a7.125,7.125,0,0,1,2.951-1.136,25.285,25.285,0,0,0,6.852-2.064l.495-.225a4.557,4.557,0,0,1,4.838,7.622l-.6.512a26.26,26.26,0,0,0-4.659,5.256,7.142,7.142,0,1,1-9.872-9.963Z" transform="translate(-211.601 -199.323)" fill="#af602d"/>
      <path id="Trazado_898255" data-name="Trazado 898255" d="M184.976,326.828a5.844,5.844,0,0,1-4.146,3.97l-2.359.163-5.558.384a5.845,5.845,0,0,1-4.652-3.362,6.034,6.034,0,0,1-.4-5.458l4.234-1.659a1.56,1.56,0,0,0,.992-1.21c.293-1.758,1.265-3.275,2.76-3.379,1.514-.1,2.677,1.276,3.2,2.974a1.577,1.577,0,0,0,2.028.993,3.133,3.133,0,0,1,2.108,0C185.243,321,186.043,323.952,184.976,326.828Z" transform="translate(-150.535 -283.736)" fill="#00c755"/>
      <path id="Trazado_898256" data-name="Trazado 898256" d="M178.472,369.931l-5.558.384a5.845,5.845,0,0,1-4.652-3.362c-1.452-2.7-1.065-5.733.865-6.771a3.144,3.144,0,0,1,2.124-.279,1.57,1.57,0,0,0,.847-.066,28.065,28.065,0,0,0,4.318,6.9A13.22,13.22,0,0,1,178.472,369.931Z" transform="translate(-150.536 -322.706)" fill="#00b730"/>
      <path id="Trazado_898257" data-name="Trazado 898257" d="M20.208,338.24a4.173,4.173,0,0,1-2.405,3.316l-5.49,1.393a4.174,4.174,0,0,1-3.7-1.768c-1.364-1.713-1.478-3.891-.255-4.865a2.243,2.243,0,0,1,1.456-.467,1.109,1.109,0,0,0,1.128-1.131c-.018-1.272.471-2.462,1.508-2.725s2.042.555,2.628,1.68a1.126,1.126,0,0,0,1.551.439,2.237,2.237,0,0,1,1.48-.271c1.54.274,2.478,2.243,2.1,4.4Z" transform="translate(-7.514 -297.756)" fill="#00b730"/>
      <circle id="Elipse_11518" data-name="Elipse 11518" cx="3.967" cy="3.967" r="3.967" transform="translate(26.979 34.913)" fill="#f85647"/>
      <circle id="Elipse_11519" data-name="Elipse 11519" cx="3.967" cy="3.967" r="3.967" transform="translate(11.109 38.087)" fill="#e83826"/>
      <path id="Trazado_898258" data-name="Trazado 898258" d="M326.61,332.006a4.174,4.174,0,0,1-3.267,2.472l-5.658-.266a4.173,4.173,0,0,1-3.02-2.768c-.806-2.036-.281-4.153,1.173-4.729a2.243,2.243,0,0,1,1.529-.022,1.109,1.109,0,0,0,1.409-.753c.353-1.222,1.168-2.218,2.236-2.167s1.792,1.126,2.025,2.373a1.126,1.126,0,0,0,1.356.871,2.237,2.237,0,0,1,1.495.171C327.28,327.9,327.6,330.055,326.61,332.006Z" transform="translate(-281.958 -290.444)" fill="#00c755"/>
      <path id="Trazado_898259" data-name="Trazado 898259" d="M77.715,429.185l-1.584,3.959a6.323,6.323,0,0,1-5.871,3.975h-32.7a6.323,6.323,0,0,1-5.871-3.975l-1.584-3.959Z" transform="translate(-27.725 -384.75)" fill="#daf2fd"/>
      <path id="Trazado_898260" data-name="Trazado 898260" d="M51.843,437.119H37.561a6.323,6.323,0,0,1-5.871-3.975l-1.584-3.959H50.644C49.951,431.012,49.676,433.783,51.843,437.119Z" transform="translate(-27.725 -384.75)" fill="#c2eafb"/>
      <path id="Trazado_898261" data-name="Trazado 898261" d="M59.886,408.976a2.378,2.378,0,0,1-2.381,2.38H9.9a2.381,2.381,0,0,1-1.718-4.029l12.116.888,11.58-1.62H57.505a2.38,2.38,0,0,1,2.381,2.381Z" transform="translate(-7.516 -364.54)" fill="#c2eafb"/>
      <path id="Trazado_898262" data-name="Trazado 898262" d="M31.875,406.595a7.679,7.679,0,0,0-1.934,4.76H9.9a2.38,2.38,0,1,1,0-4.76Z" transform="translate(-7.516 -364.54)" fill="#a8e1f6"/>
      <path id="Trazado_898263" data-name="Trazado 898263" d="M236.063,7.534a.789.789,0,0,0-.751,1.033,4.292,4.292,0,0,1-.5,3.728,4.291,4.291,0,0,0,0,4.761,4.292,4.292,0,0,1,.29,4.254.355.355,0,0,0,.322.507A3.066,3.066,0,0,0,238.01,17.1l-.029-.043a4.291,4.291,0,0,1,0-4.761,4.285,4.285,0,0,0,.69-1.868,2.61,2.61,0,0,0-2.609-2.893Z" transform="translate(-210.209 -7.534)" fill="#daf2fd"/>
      <path id="Trazado_898264" data-name="Trazado 898264" d="M161.576,7.534a.789.789,0,0,0-.751,1.033,4.292,4.292,0,0,1-.5,3.728,4.291,4.291,0,0,0,0,4.761,4.292,4.292,0,0,1,.29,4.254.355.355,0,0,0,.322.507,3.066,3.066,0,0,0,2.591-4.718l-.029-.043a4.291,4.291,0,0,1,0-4.761,4.285,4.285,0,0,0,.69-1.868,2.61,2.61,0,0,0-2.609-2.893Z" transform="translate(-143.572 -7.534)" fill="#c2eafb"/>
      <path id="Trazado_898265" data-name="Trazado 898265" d="M310.667,7.534a.789.789,0,0,0-.751,1.033,4.292,4.292,0,0,1-.5,3.728,4.291,4.291,0,0,0,0,4.761,4.292,4.292,0,0,1,.29,4.254.355.355,0,0,0,.322.507,3.066,3.066,0,0,0,2.591-4.718l-.029-.043a4.291,4.291,0,0,1,0-4.761,4.285,4.285,0,0,0,.69-1.868,2.61,2.61,0,0,0-2.609-2.893Z" transform="translate(-276.951 -7.534)" fill="#daf2fd"/>
    </g>
    <g id="Grupo_1108073" data-name="Grupo 1108073" transform="translate(-0.001 0.034)">
      <path id="Trazado_898266" data-name="Trazado 898266" d="M50.781,176.767H49.4a8.339,8.339,0,0,0,.582-3.177,9.687,9.687,0,0,0-4.9-8.82,5.345,5.345,0,0,0,.424-1.747l1.117-.708a.769.769,0,0,1,.891.03,3.967,3.967,0,0,0,6-4.907,4.026,4.026,0,0,0-2.035-1.877.8.8,0,0,1-.5-.774A4.023,4.023,0,0,0,50,151.943a3.922,3.922,0,0,0-5.148-.709A3.962,3.962,0,0,0,43.36,156.1a.785.785,0,0,1-.306.97l-.944.6a5.3,5.3,0,0,0-3.22-.208c-4.741-3.555-13.312-4.761-20.46-2.862a23.668,23.668,0,0,0-11.439,6.631.79.79,0,0,0,1.172,1.061,22.077,22.077,0,0,1,10.673-6.164c6.317-1.679,13.772-.812,18.283,2.031a24.638,24.638,0,0,1-4.647,1.55.79.79,0,1,0,.344,1.543,27.912,27.912,0,0,0,5.8-2.027,3.767,3.767,0,0,1,4,6.3,26.569,26.569,0,0,0-2.7,2.517c-1.537-.089-2.632,1.232-3.067,2.737a.318.318,0,0,1-.408.219,3.136,3.136,0,0,0-1.486-.118,4.746,4.746,0,0,0-5.163-.84c-.953-2.243-2.675-3.036-4.142-2.73a6.356,6.356,0,0,1,3.729-5.246.79.79,0,1,0-.641-1.445,7.95,7.95,0,0,0-4.689,7.567,5.57,5.57,0,0,0-1.483,3.106.761.761,0,0,1-.893.633,4.312,4.312,0,0,0-3.674-2.1.794.794,0,0,1-.586-1.268,10.342,10.342,0,0,0,1.27-2.246,2.372,2.372,0,0,0-3.007-3.11c-2.842,1.022-6.628,2.841-8.922,5.78a2.408,2.408,0,0,0-1.687.167,9.187,9.187,0,0,1,1.081-3.993.79.79,0,1,0-1.4-.726,10.147,10.147,0,0,0-1.109,6.544,4.864,4.864,0,0,0-.2,1.5.319.319,0,0,1-.326.33c-2.613-.042-3.888,2.648-2.59,5.4a3.173,3.173,0,0,0,2.655,4.9h.417l.433,1.083a7.079,7.079,0,0,0,6.6,4.472h32.7a7.079,7.079,0,0,0,6.6-4.472l.433-1.083h.417a3.17,3.17,0,1,0,0-6.341Zm-7.15-18.191.271-.172a2.361,2.361,0,0,0,.914-2.919,2.389,2.389,0,1,1,4.586-.776,2.392,2.392,0,0,0,1.473,2.31,2.446,2.446,0,0,1,1.236,1.141,2.384,2.384,0,0,1-3.61,2.947,2.35,2.35,0,0,0-2.723-.128l-.44.279A5.32,5.32,0,0,0,43.631,158.576Zm.623,7.537A8.12,8.12,0,0,1,48.4,173.59a6.372,6.372,0,0,1-.754,3.177H46.438c1.245-3.3-.7-6.027-3.374-5.465a.339.339,0,0,1-.416-.243,4.181,4.181,0,0,0-1.192-2.342C42.832,167.3,43.649,166.826,44.254,166.113Zm-8.3,6.39a1.9,1.9,0,0,0,2.409-1.286c.289-1,.852-1.628,1.445-1.6s1.089.707,1.28,1.73a1.916,1.916,0,0,0,2.295,1.5,1.444,1.444,0,0,1,.973.1c.986.5,1.16,2.222.378,3.757l-.032.06H34.5C33.263,174.548,34.088,171.9,35.958,172.5Zm-2.551-.823a4.75,4.75,0,0,0-.656,5.087h-3.12c-.013-.014-.026-.028-.041-.041a3.177,3.177,0,0,1,3.816-5.046Zm-9.282-.128c.265-1.588,1.066-2.657,2.042-2.723.908-.062,1.782.76,2.282,2.116a4.753,4.753,0,0,0-.829,5.821H20.559a4.739,4.739,0,0,0-1.386-2.628,2.218,2.218,0,0,1,2.181-.664A2.342,2.342,0,0,0,24.125,171.553Zm-8.258,2.827a3.182,3.182,0,0,1,3.077,2.387H12.79A3.181,3.181,0,0,1,15.868,174.38Zm.344-9.692a.791.791,0,0,1,1.006,1.033,8.763,8.763,0,0,1-1.078,1.9,2.374,2.374,0,0,0,1.739,3.779,3.347,3.347,0,0,1,1.818.6,3.7,3.7,0,0,0-1.831,1.238,4.746,4.746,0,0,0-3.822-.076c-.761-2.085-2.7-3-4.514-2a.34.34,0,0,1-.471-.112,4.932,4.932,0,0,0-.923-1.272c2.2-2.687,5.951-4.331,8.075-5.1Zm-13.128,9.7a1.9,1.9,0,0,0,1.931-1.932c-.015-1.04.345-1.806.917-1.95s1.246.36,1.727,1.283a1.917,1.917,0,0,0,2.633.766c1.127-.62,2.059.228,2.372,1.49a4.739,4.739,0,0,0-1.488,2.724h-8a3.151,3.151,0,0,0-1.4.327c-.453-1.344-.093-2.729,1.312-2.708Zm47.7,7.141H39.994a.79.79,0,0,0,0,1.581h8.668l-.2.5a5.506,5.506,0,0,1-5.137,3.478h-32.7A5.506,5.506,0,0,1,5.49,183.6l-.2-.5H36.305a.79.79,0,0,0,0-1.581H3.172a1.59,1.59,0,1,1,0-3.179H50.781a1.59,1.59,0,1,1,0,3.179Z" transform="translate(0.001 -134.712)"/>
      <path id="Trazado_898267" data-name="Trazado 898267" d="M227.655,14.255a1.145,1.145,0,0,0,1.033,1.642,3.856,3.856,0,0,0,3.22-5.99,3.492,3.492,0,0,1,0-3.884,5.1,5.1,0,0,0,.817-2.212A3.4,3.4,0,0,0,229.331.034a1.58,1.58,0,0,0-1.5,2.071,3.48,3.48,0,0,1-.411,3.042,5.068,5.068,0,0,0,0,5.638,3.513,3.513,0,0,1,.237,3.471Zm1.079-8.231a5.051,5.051,0,0,0,.6-4.409,1.82,1.82,0,0,1,1.823,2.009,3.516,3.516,0,0,1-.563,1.524,5.068,5.068,0,0,0,0,5.638,2.273,2.273,0,0,1-1.229,3.434,5.1,5.1,0,0,0-.629-4.31A3.492,3.492,0,0,1,228.734,6.024Z" transform="translate(-202.686 -0.034)"/>
      <path id="Trazado_898268" data-name="Trazado 898268" d="M153.167,14.255A1.145,1.145,0,0,0,154.2,15.9a3.856,3.856,0,0,0,3.22-5.99,3.492,3.492,0,0,1,0-3.884,5.105,5.105,0,0,0,.817-2.212A3.4,3.4,0,0,0,154.843.034a1.58,1.58,0,0,0-1.5,2.071,3.48,3.48,0,0,1-.411,3.042,5.068,5.068,0,0,0,0,5.638,3.513,3.513,0,0,1,.237,3.471Zm1.079-8.231a5.05,5.05,0,0,0,.6-4.409,1.819,1.819,0,0,1,1.823,2.009,3.516,3.516,0,0,1-.563,1.524,5.068,5.068,0,0,0,0,5.638,2.273,2.273,0,0,1-1.229,3.434,5.1,5.1,0,0,0-.629-4.31A3.492,3.492,0,0,1,154.246,6.024Z" transform="translate(-136.048 -0.034)"/>
      <path id="Trazado_898269" data-name="Trazado 898269" d="M302.259,14.255a1.145,1.145,0,0,0,1.033,1.642,3.856,3.856,0,0,0,3.22-5.99,3.492,3.492,0,0,1,0-3.884,5.105,5.105,0,0,0,.817-2.212A3.4,3.4,0,0,0,303.935.034a1.58,1.58,0,0,0-1.5,2.071,3.48,3.48,0,0,1-.411,3.042,5.068,5.068,0,0,0,0,5.638,3.513,3.513,0,0,1,.237,3.471Zm1.079-8.231a5.051,5.051,0,0,0,.6-4.409,1.82,1.82,0,0,1,1.823,2.009,3.517,3.517,0,0,1-.563,1.524,5.068,5.068,0,0,0,0,5.638,2.273,2.273,0,0,1-1.229,3.434,5.1,5.1,0,0,0-.629-4.31A3.492,3.492,0,0,1,303.338,6.024Z" transform="translate(-269.428 -0.034)"/>
    </g>
  </g>
</svg>
