<svg xmlns="http://www.w3.org/2000/svg" width="84.418" height="84.418" viewBox="0 0 84.418 84.418">
  <g id="Grupo_1107988" data-name="Grupo 1107988" transform="translate(0)">
    <g id="Grupo_1107970" data-name="Grupo 1107970" transform="translate(0)">
      <path id="Trazado_898122" data-name="Trazado 898122" d="M113.2,48.5a40.966,40.966,0,0,0-43.317-40.9C30.019,16.889,23.729,69.636,59.27,87.378A40.993,40.993,0,0,0,113.2,48.5Z" transform="translate(-30.019 -6.295)" fill="#69576e"/>
      <path id="Trazado_898123" data-name="Trazado 898123" d="M46.147,7.945A40.973,40.973,0,0,0,35.539,87.718C24.8,63.6,29.713,26.023,46.147,7.945Z" transform="translate(-6.288 -6.635)" fill="#594c5e"/>
      <path id="Trazado_898124" data-name="Trazado 898124" d="M153.452,105.089a29.812,29.812,0,0,0-40.687-27.741c-19.648,12.016-18.6,39.41-6.455,51.966a29.8,29.8,0,0,0,47.142-24.225Z" transform="translate(-81.448 -62.88)" fill="#efedff"/>
      <path id="Trazado_898125" data-name="Trazado 898125" d="M94.2,87.752a29.8,29.8,0,0,0-6.455,51.966c-3.017-16.675-.821-36.508,6.455-51.966Z" transform="translate(-62.88 -73.284)" fill="#d9d9f9"/>
      <path id="Trazado_898126" data-name="Trazado 898126" d="M113.179,181a4.437,4.437,0,0,0,4.267,6.444c12.895-.969,24.732-11.232,27.317-23.066,4.062-18.581-14.9-34.486-32.74-26.9-13.194,9.235-14.174,25.418-3.98,28.434a7.778,7.778,0,0,1,4.742,2.157C115.695,170.978,115.667,176.048,113.179,181Z" transform="translate(-84.484 -113.191)" fill="#ff899f"/>
      <path id="Trazado_898127" data-name="Trazado 898127" d="M72.695,147.288a32.251,32.251,0,0,0-14.822,13.669v0a29.734,29.734,0,0,0-3.789,12.259,4.438,4.438,0,0,0,6.444,4.267,14.946,14.946,0,0,1,8.187-1.763A92.89,92.89,0,0,1,72.695,147.288Z" transform="translate(-45.156 -123.003)" fill="#ff5f7f"/>
      <path id="Trazado_898128" data-name="Trazado 898128" d="M415.151,207.444a7.447,7.447,0,0,1-.9,7.995,7.448,7.448,0,0,1-6-12.14,7.446,7.446,0,0,1,6.9,4.145Z" transform="translate(-339.55 -169.777)" fill="#a6d239"/>
      <path id="Trazado_898129" data-name="Trazado 898129" d="M269.446,56.265A7.449,7.449,0,0,1,256,57.877a7.447,7.447,0,0,1,13.446-1.612Z" transform="translate(-213.791 -44.013)" fill="#a6d239"/>
      <path id="Trazado_898130" data-name="Trazado 898130" d="M64.694,173.742A39.732,39.732,0,0,1,8.366,120.174a1.241,1.241,0,0,0-2.113-1.3A42.214,42.214,0,0,0,66.1,175.788a1.241,1.241,0,0,0-1.407-2.046Z" transform="translate(0 -98.779)"/>
      <path id="Trazado_898131" data-name="Trazado 898131" d="M90.056,0A42.107,42.107,0,0,0,57.58,15.248a1.241,1.241,0,0,0,1.91,1.587,39.726,39.726,0,1,1,57.443,54.628,1.241,1.241,0,1,0,1.68,1.828A42.208,42.208,0,0,0,90.056,0Z" transform="translate(-47.847)"/>
      <path id="Trazado_898132" data-name="Trazado 898132" d="M95.582,49.361a8.692,8.692,0,0,0-14.537-.432,30.994,30.994,0,0,0-30.653,26.38,31.1,31.1,0,0,0-3.833,12.57,5.671,5.671,0,0,0,6.759,5.978,31.3,31.3,0,0,0,12.548,13.167,5.664,5.664,0,0,0,6.057,6.22A30.091,30.091,0,0,0,81.195,111a31.041,31.041,0,0,0,30.587-26.484,8.63,8.63,0,0,0,1.828.143,1.241,1.241,0,0,0,.928-.459,8.69,8.69,0,0,0-3.89-13.679A30.967,30.967,0,0,0,94.9,52.173a8.648,8.648,0,0,0,.807-1.783,1.241,1.241,0,0,0-.123-1.029Zm-2.445.815a6.212,6.212,0,0,1-10.673,1.28A6.211,6.211,0,0,1,93.137,50.176Zm-13,58.576A24.833,24.833,0,0,0,74.169,87.39l3.516-3.516a29.751,29.751,0,0,1,7.807,22.032A30.379,30.379,0,0,1,80.138,108.752ZM53.9,74.311a29.755,29.755,0,0,1,22.027,7.808l-3.516,3.516a24.831,24.831,0,0,0-21.358-5.97A29.987,29.987,0,0,1,53.9,74.311Zm34.133,29.712a32.222,32.222,0,0,0-8.594-21.906L83,78.561a37.134,37.134,0,0,1,9.7,20.758,31.912,31.912,0,0,1-4.665,4.7Zm6.713-7.592A39.888,39.888,0,0,0,84.714,76.845l3.5-3.5a44.647,44.647,0,0,1,9.643,15.666A24.983,24.983,0,0,1,94.748,96.431Zm3.711-12.449a47.535,47.535,0,0,0-8.476-12.407l2.62-2.62A22.059,22.059,0,0,1,98.459,83.982ZM88.227,69.821A47.57,47.57,0,0,0,75.82,61.344,22.061,22.061,0,0,1,90.847,67.2ZM70.789,61.949a44.648,44.648,0,0,1,15.666,9.643l-3.5,3.5A39.886,39.886,0,0,0,63.372,65.055a24.983,24.983,0,0,1,7.418-3.106ZM60.484,67.1a37.133,37.133,0,0,1,20.758,9.7l-3.556,3.556a32.219,32.219,0,0,0-21.9-8.594A31.767,31.767,0,0,1,60.484,67.1ZM49.035,88.065a27.074,27.074,0,0,1,1.049-5.635,22.354,22.354,0,0,1,20.571,4.963L67.1,90.945c-3.822-2.818-9.178-1.947-13.426.188a3.193,3.193,0,0,1-4.642-3.069Zm6.606,4.885c9.54-4.233,15.508,2.183,11.007,11.659A28.811,28.811,0,0,1,55.641,92.949Zm16.1,17.818a3.2,3.2,0,0,1-3.065-4.648c2.575-5.12,2.613-10.13.186-13.42l3.551-3.551a22.355,22.355,0,0,1,4.961,20.578,27.007,27.007,0,0,1-5.634,1.042Zm41.217-28.6a6.211,6.211,0,0,1-4.763-9.636A6.209,6.209,0,0,1,112.955,82.168Zm-5.1-12.132q-.157,0-.315,0a1.242,1.242,0,0,0-.93.459,8.689,8.689,0,0,0,2.778,13.2,28.41,28.41,0,0,1-22.44,24.222C102.285,97.65,105.848,78.642,93.5,66.3c-10.825-10.825-27.664-9.88-38.961,3.088A28.524,28.524,0,0,1,79.853,51.436a1.24,1.24,0,0,0,.167.834,8.682,8.682,0,0,0,13.266,1.877A28.5,28.5,0,0,1,107.854,70.036Z" transform="translate(-38.869 -37.758)"/>
    </g>
  </g>
</svg>
