<svg id="Grupo_1108035" data-name="Grupo 1108035" xmlns="http://www.w3.org/2000/svg" width="80" height="80" viewBox="0 0 80 80">
  <circle id="Elipse_11500" data-name="Elipse 11500" cx="40" cy="40" r="40" fill="#fff"/>
  <g id="Grupo_1108049" data-name="Grupo 1108049" transform="translate(10.413 -51.318)">
    <path id="Trazado_898208" data-name="Trazado 898208" d="M137.158,84.93l-1.739-7.608H151.07l-1.087,7.825" transform="translate(-119.768 -6.654)" fill="#f7a246"/>
    <path id="Trazado_898209" data-name="Trazado 898209" d="M139.984,84.93l-1.739-7.608h-2.826l1.739,7.608,12.825.217.007-.048Z" transform="translate(-119.768 -6.654)" fill="#b97a35"/>
    <path id="Trazado_898210" data-name="Trazado 898210" d="M22.57,131.458v-2.609h0a2.609,2.609,0,0,1,2.609-2.609h0a2.609,2.609,0,0,0,2.609-2.608h0A5.217,5.217,0,0,1,33,118.415h11.3a1.739,1.739,0,0,0,1.739-1.739h0a1.739,1.739,0,0,1,1.739-1.739H59.331a7.8,7.8,0,0,1,7.8,7.8h0a3.5,3.5,0,0,0,3.5,3.5h3.019a2.826,2.826,0,0,1,2.826,2.826h0v2.609Z" transform="translate(-19.961 -39.922)" fill="#fdeeb1"/>
    <g id="Grupo_1108043" data-name="Grupo 1108043" transform="translate(2.609 75.015)">
      <path id="Trazado_898211" data-name="Trazado 898211" d="M443.121,215.132h2.333a2.827,2.827,0,0,0-2.792-2.391H439.8A3.5,3.5,0,0,0,443.121,215.132Z" transform="translate(-391.579 -201.437)" fill="#fef5d0"/>
      <path id="Trazado_898212" data-name="Trazado 898212" d="M26.048,131.24h0a2.608,2.608,0,0,1,2.609-2.609,2.609,2.609,0,0,0,2.609-2.609h0a5.217,5.217,0,0,1,5.217-5.217h11.3a1.739,1.739,0,0,0,1.739-1.739,1.739,1.739,0,0,1,1.739-1.739H62.809a7.787,7.787,0,0,1,2.515.417,7.784,7.784,0,0,0-5.993-2.808H47.785a1.739,1.739,0,0,0-1.739,1.739,1.739,1.739,0,0,1-1.739,1.739H33a5.217,5.217,0,0,0-5.217,5.217h0a2.609,2.609,0,0,1-2.609,2.609,2.608,2.608,0,0,0-2.609,2.608h0v2.609l3.478.014Z" transform="translate(-22.57 -114.937)" fill="#fef5d0"/>
    </g>
    <path id="Trazado_898213" data-name="Trazado 898213" d="M44.525,278.313A20.433,20.433,0,0,0,64.958,257.88H7.523a20.433,20.433,0,0,0,20.433,20.433Z" transform="translate(-6.654 -166.345)" fill="#e53844"/>
    <path id="Trazado_898214" data-name="Trazado 898214" d="M14.431,257.881H7.523a20.433,20.433,0,0,0,20.433,20.433h6.908A20.433,20.433,0,0,1,14.431,257.881Z" transform="translate(-6.654 -166.346)" fill="#ac2a33"/>
    <rect id="Rectángulo_401744" data-name="Rectángulo 401744" width="57.169" height="3.043" transform="translate(0.869 91.535)" fill="#fff"/>
    <rect id="Rectángulo_401745" data-name="Rectángulo 401745" width="7.173" height="3.043" transform="translate(0.869 91.535)" fill="#bfbfbf"/>
    <rect id="Rectángulo_401746" data-name="Rectángulo 401746" width="6.956" height="1.739" transform="translate(5.217 93.709)"/>
    <path id="Trazado_898215" data-name="Trazado 898215" d="M53.4,209.565H45.14v-1.739H53.4a.435.435,0,0,0,.435-.435,2.176,2.176,0,0,1,2.174-2.174h4.348v1.739H56.009a.435.435,0,0,0-.435.435A2.176,2.176,0,0,1,53.4,209.565Z" transform="translate(-39.923 -119.768)" fill="#f9d53d"/>
    <rect id="Rectángulo_401747" data-name="Rectángulo 401747" width="1.739" height="1.739" transform="translate(10.434 83.71)" fill="#a4bc79"/>
    <g id="Grupo_1108044" data-name="Grupo 1108044" transform="translate(16.52 81.102)">
      <rect id="Rectángulo_401748" data-name="Rectángulo 401748" width="1.739" height="3.043" transform="translate(0 6.956)" fill="#f9d53d"/>
      <path id="Trazado_898216" data-name="Trazado 898216" d="M154.679,171.949h-4.348a2.176,2.176,0,0,1-2.174-2.174.435.435,0,0,0-.435-.435h-2.609a.435.435,0,0,0-.435.435v1.3h-1.739v-1.3a2.176,2.176,0,0,1,2.174-2.174h2.608a2.176,2.176,0,0,1,2.174,2.174.435.435,0,0,0,.435.435h4.348v1.739Z" transform="translate(-142.941 -167.602)" fill="#f9d53d"/>
    </g>
    <g id="Grupo_1108045" data-name="Grupo 1108045" transform="translate(21.737 81.101)">
      <rect id="Rectángulo_401749" data-name="Rectángulo 401749" width="1.739" height="1.739" transform="translate(4.347)" fill="#a4bc79"/>
      <rect id="Rectángulo_401750" data-name="Rectángulo 401750" width="1.739" height="1.739" transform="translate(0 6.086)" fill="#a4bc79"/>
    </g>
    <rect id="Rectángulo_401751" data-name="Rectángulo 401751" width="1.739" height="1.739" transform="translate(13.043 80.232)" fill="#fff"/>
    <g id="Grupo_1108046" data-name="Grupo 1108046" transform="translate(25.868 77.623)">
      <path id="Trazado_898217" data-name="Trazado 898217" d="M226.644,175.427h-2.826v-1.739h2.826a.87.87,0,0,0,.869-.869V170.21a2.608,2.608,0,1,1,5.217,0,.87.87,0,0,0,.869.869h.869v1.739H233.6a2.611,2.611,0,0,1-2.608-2.609.869.869,0,0,0-1.739,0v2.609A2.611,2.611,0,0,1,226.644,175.427Z" transform="translate(-223.818 -164.123)" fill="#f9d53d"/>
      <path id="Trazado_898218" data-name="Trazado 898218" d="M290.668,143.594h-2.174v-1.739h2.174a1.3,1.3,0,0,0,0-2.609h-4.782v-1.739h4.782a3.043,3.043,0,1,1,0,6.087Z" transform="translate(-278.713 -137.507)" fill="#f9d53d"/>
    </g>
    <g id="Grupo_1108047" data-name="Grupo 1108047" transform="translate(28.693 78.493)">
      <rect id="Rectángulo_401752" data-name="Rectángulo 401752" width="1.739" height="1.739" fill="#fff"/>
      <rect id="Rectángulo_401753" data-name="Rectángulo 401753" width="1.739" height="1.739" transform="translate(4.13 8.695)" fill="#fff"/>
    </g>
    <path id="Trazado_898219" data-name="Trazado 898219" d="M317.717,174.709h-1.739v-.435a3.917,3.917,0,0,1,3.913-3.913.435.435,0,0,0,.435-.435,2.176,2.176,0,0,1,2.174-2.174.435.435,0,0,0,.435-.435V163.84h1.739v3.478a2.176,2.176,0,0,1-2.174,2.174.435.435,0,0,0-.435.435,2.176,2.176,0,0,1-2.174,2.174,2.176,2.176,0,0,0-2.174,2.174v.435Z" transform="translate(-279.459 -83.173)" fill="#f9d53d"/>
    <g id="Grupo_1108048" data-name="Grupo 1108048" transform="translate(37.388 78.493)">
      <rect id="Rectángulo_401754" data-name="Rectángulo 401754" width="1.739" height="1.739" transform="translate(0 6.086)" fill="#a4bc79"/>
      <rect id="Rectángulo_401755" data-name="Rectángulo 401755" width="1.739" height="1.739" transform="translate(4.348)" fill="#a4bc79"/>
    </g>
    <rect id="Rectángulo_401756" data-name="Rectángulo 401756" width="1.739" height="1.739" transform="translate(44.344 87.188)" fill="#fff"/>
    <rect id="Rectángulo_401757" data-name="Rectángulo 401757" width="1.739" height="2.609" transform="translate(46.083 88.927)" fill="#a4bc79"/>
    <path id="Trazado_898220" data-name="Trazado 898220" d="M434.044,231.265h-1.739a1.741,1.741,0,0,0-1.739-1.739h-1.739v-1.739h1.739A3.482,3.482,0,0,1,434.044,231.265Z" transform="translate(-379.266 -139.73)" fill="#f9d53d"/>
    <rect id="Rectángulo_401758" data-name="Rectángulo 401758" width="1.956" height="1.739" transform="translate(18.911 72.406)"/>
    <rect id="Rectángulo_401759" data-name="Rectángulo 401759" width="1.739" height="1.739" transform="translate(20.868 74.145)"/>
    <path id="Trazado_898221" data-name="Trazado 898221" d="M67,85.449H63.981a2.636,2.636,0,0,1-2.633-2.633,8.68,8.68,0,0,0-8.67-8.67h-8L45.711,69.8H27.868l1.789,7.826H26.35a6.093,6.093,0,0,0-6.086,6.086,1.741,1.741,0,0,1-1.739,1.739,3.482,3.482,0,0,0-3.478,3.478h1.739a1.741,1.741,0,0,1,1.739-1.739A3.482,3.482,0,0,0,22,83.71a4.352,4.352,0,0,1,4.348-4.348h11.3a2.611,2.611,0,0,0,2.609-2.608.87.87,0,0,1,.869-.869H52.678a6.939,6.939,0,0,1,6.931,6.931,4.377,4.377,0,0,0,4.372,4.372H67a1.959,1.959,0,0,1,1.956,1.956h1.739A3.7,3.7,0,0,0,67,85.449ZM38.523,76.754a.87.87,0,0,1-.869.869H34.176v-.869H32.437v.869h-1L30.05,71.537h7.6v1.739h1.739V71.537h4.116l-.621,2.608H41.132A2.611,2.611,0,0,0,38.523,76.754Z" transform="translate(-13.308)"/>
    <path id="Trazado_898222" data-name="Trazado 898222" d="M0,250.358v.869a21.327,21.327,0,0,0,21.3,21.3H37.871a21.327,21.327,0,0,0,21.3-21.3v-.869Zm37.871,20.433H21.3A19.6,19.6,0,0,1,2.133,255.14H3.478V253.4H1.86c-.048-.431-.083-.866-.1-1.3H57.416c-.019.439-.054.873-.1,1.3h-43.4v1.739H57.041A19.6,19.6,0,0,1,37.871,270.791Z" transform="translate(0 -159.692)"/>
  </g>
</svg>
